<svg xmlns="http://www.w3.org/2000/svg" xmlns:xlink="http://www.w3.org/1999/xlink" width="182" zoomAndPan="magnify" viewBox="0 0 136.5 38.999999" height="52" preserveAspectRatio="xMidYMid meet" version="1.0"><defs><g/><clipPath id="id1"><path d="M 16 4.722656 L 57.222656 4.722656 L 57.222656 29.472656 L 16 29.472656 Z M 16 4.722656 " clip-rule="nonzero"/></clipPath></defs><g fill="#fffff0" fill-opacity="1"><g transform="translate(57.282075, 28.659282)"><g><path d="M 1.90625 -19.875 C 2.425781 -20.382812 3.039062 -20.640625 3.75 -20.640625 C 4.46875 -20.640625 5.082031 -20.382812 5.59375 -19.875 C 6.113281 -19.363281 6.375 -18.75 6.375 -18.03125 C 6.375 -17.320312 6.113281 -16.707031 5.59375 -16.1875 C 5.082031 -15.675781 4.46875 -15.421875 3.75 -15.421875 C 3.039062 -15.421875 2.425781 -15.675781 1.90625 -16.1875 C 1.394531 -16.707031 1.140625 -17.320312 1.140625 -18.03125 C 1.140625 -18.75 1.394531 -19.363281 1.90625 -19.875 Z M 1.5 -12.765625 L 1.5 0 L 5.890625 0 L 5.890625 -12.765625 Z M 1.5 -12.765625 "/></g></g></g><g fill="#fffff0" fill-opacity="1"><g transform="translate(64.791939, 28.659282)"><g><path d="M 1.5 0 L 1.5 -21.390625 L 5.890625 -21.390625 L 5.890625 0 Z M 1.5 0 "/></g></g></g><g fill="#fffff0" fill-opacity="1"><g transform="translate(72.177474, 28.659282)"><g><path d="M 1.5 0 L 1.5 -21.390625 L 5.890625 -21.390625 L 5.890625 0 Z M 1.5 0 "/></g></g></g><g fill="#fffff0" fill-opacity="1"><g transform="translate(79.56301, 28.659282)"><g><path d="M 2.703125 -1.515625 C 1.285156 -2.773438 0.578125 -4.390625 0.578125 -6.359375 C 0.578125 -8.335938 1.3125 -9.960938 2.78125 -11.234375 C 4.257812 -12.503906 6.085938 -13.140625 8.265625 -13.140625 C 10.398438 -13.140625 12.203125 -12.5 13.671875 -11.21875 C 15.140625 -9.9375 15.875 -8.316406 15.875 -6.359375 C 15.875 -4.410156 15.15625 -2.800781 13.71875 -1.53125 C 12.28125 -0.257812 10.460938 0.375 8.265625 0.375 C 5.972656 0.375 4.117188 -0.253906 2.703125 -1.515625 Z M 6.109375 -8.53125 C 5.535156 -7.96875 5.25 -7.242188 5.25 -6.359375 C 5.25 -5.484375 5.519531 -4.769531 6.0625 -4.21875 C 6.613281 -3.664062 7.335938 -3.390625 8.234375 -3.390625 C 9.097656 -3.390625 9.804688 -3.671875 10.359375 -4.234375 C 10.910156 -4.796875 11.1875 -5.507812 11.1875 -6.375 C 11.1875 -7.25 10.898438 -7.96875 10.328125 -8.53125 C 9.765625 -9.09375 9.066406 -9.375 8.234375 -9.375 C 7.390625 -9.375 6.679688 -9.09375 6.109375 -8.53125 Z M 6.109375 -8.53125 "/></g></g></g><g fill="#fffff0" fill-opacity="1"><g transform="translate(96.000169, 28.659282)"><g><path d="M 9.328125 0 L 6.34375 0 L -0.5 -12.765625 L 4.578125 -12.765625 L 7.6875 -5.875 L 10.75 -12.765625 L 13.78125 -12.765625 L 16.84375 -5.875 L 19.953125 -12.765625 L 25.03125 -12.765625 L 18.1875 0 L 15.203125 0 L 12.265625 -6.59375 Z M 9.328125 0 "/></g></g></g><g clip-path="url(#id1)"><path fill="#fffff0" d="M 28.789062 20.363281 L 25.996094 23.570312 L 16 13.714844 L 22.167969 13.714844 Z M 51.300781 13.714844 L 43.402344 22.777344 L 37.371094 16.765625 L 28.914062 26.445312 L 31.984375 29.472656 L 37.464844 23.140625 L 43.539062 29.105469 L 57.191406 13.714844 Z M 36.972656 4.722656 L 28.605469 14.167969 L 31.628906 17.289062 L 37.144531 10.832031 L 43.273438 16.945312 L 46.117188 13.714844 Z M 36.972656 4.722656 " fill-opacity="1" fill-rule="nonzero"/></g></svg>