<svg xmlns="http://www.w3.org/2000/svg" xmlns:xlink="http://www.w3.org/1999/xlink" width="500" zoomAndPan="magnify" viewBox="0 0 375 374.999991" height="500" preserveAspectRatio="xMidYMid meet" version="1.0"><defs><clipPath id="id1"><path d="M 46.53125 48.222656 L 328.460938 48.222656 L 328.460938 326.472656 L 46.53125 326.472656 Z M 46.53125 48.222656 " clip-rule="nonzero"/></clipPath></defs><rect x="-37.5" width="450" fill="#ffffff" y="-37.499999" height="449.999989" fill-opacity="1"/><rect x="-37.5" width="450" fill="#ffffff" y="-37.499999" height="449.999989" fill-opacity="1"/><rect x="-37.5" width="450" fill="#ffffff" y="-37.499999" height="449.999989" fill-opacity="1"/><g clip-path="url(#id1)"><path fill="#e82127" d="M 146.121094 201.457031 C 152.589844 195.171875 160.691406 191.980469 167.832031 189.171875 C 170.050781 188.300781 172.195312 187.453125 174.183594 186.558594 C 226.039062 137.046875 189.832031 70.832031 189.832031 70.832031 C 193.617188 97.289062 191.53125 116.535156 186.398438 131.410156 C 176.933594 109.566406 162.480469 95.886719 162.480469 95.886719 C 172.925781 117.191406 181.632812 134.988281 177.832031 149.117188 C 175.347656 158.359375 169.773438 164.375 160.703125 169.675781 C 156.253906 147.410156 146.011719 131.8125 146.011719 131.8125 C 150.496094 151.535156 150.847656 174.175781 146.421875 186.675781 C 143.46875 195.015625 135.460938 203.394531 132.675781 214.050781 C 136.664062 210.476562 141.109375 206.328125 146.121094 201.457031 Z M 187.519531 48.292969 C 265.394531 48.292969 328.523438 111.371094 328.523438 189.179688 C 328.523438 240.6875 300.847656 285.71875 259.558594 310.289062 C 226.734375 326.40625 220.660156 301.039062 222.019531 279.355469 C 224.445312 240.597656 212.425781 226.097656 212.425781 226.097656 L 233.734375 219.183594 L 198.570312 206.40625 C 283.289062 201.757812 295.921875 114.851562 295.921875 114.851562 C 281.84375 140.460938 267.371094 155.921875 253.109375 165.546875 C 259.191406 140.25 255.542969 118.808594 255.542969 118.808594 C 250.679688 144.28125 246.59375 165.554688 233.984375 175.414062 C 225.742188 181.855469 216.910156 183.464844 205.5 182.136719 C 216.242188 159.765625 217.539062 139.40625 217.539062 139.40625 C 208.5 159.589844 193.929688 179.613281 181.847656 187.632812 C 173.042969 193.480469 158.929688 195.394531 149.3125 204.734375 C 113.148438 239.878906 105.953125 238.347656 88.796875 249.527344 C 78.617188 256.160156 99.453125 265.691406 105.3125 267.105469 C 113.589844 269.09375 131.898438 270.898438 142.582031 270.171875 C 179.097656 267.683594 190.152344 247.503906 190.152344 247.503906 C 188.621094 261.113281 167.777344 271.117188 151.5 276.914062 C 151.328125 285.582031 151.574219 304.574219 155.625 326.40625 C 93.125 311.960938 46.515625 256.027344 46.515625 189.179688 C 46.515625 111.371094 109.648438 48.292969 187.519531 48.292969 " fill-opacity="1" fill-rule="nonzero"/></g></svg>