<svg xmlns="http://www.w3.org/2000/svg" xmlns:xlink="http://www.w3.org/1999/xlink" width="500" zoomAndPan="magnify" viewBox="0 0 375 374.999991" height="500" preserveAspectRatio="xMidYMid meet" version="1.0"><defs><clipPath id="id1"><path d="M 54 48 L 319 48 L 319 327.660156 L 54 327.660156 Z M 54 48 " clip-rule="nonzero"/></clipPath></defs><rect x="-37.5" width="450" fill="#f6f3f0" y="-37.499999" height="449.999989" fill-opacity="1"/><rect x="-37.5" width="450" fill="#ffffff" y="-37.499999" height="449.999989" fill-opacity="1"/><rect x="-37.5" width="450" fill="#f6f3f0" y="-37.499999" height="449.999989" fill-opacity="1"/><path fill="#ef4136" d="M 237.292969 221.582031 C 228.820312 227.121094 221.003906 228.871094 214.539062 228.871094 C 211.394531 228.871094 208.304688 228.464844 205.265625 227.65625 C 200.773438 226.464844 196.652344 224.496094 192.902344 221.757812 C 192.292969 222.515625 191.636719 223.230469 190.9375 223.910156 C 194.824219 227.492188 199.285156 230.097656 204.320312 231.71875 C 207.96875 232.898438 211.710938 233.46875 215.542969 233.4375 C 215.675781 233.429688 215.808594 233.429688 215.9375 233.4375 C 216.027344 233.4375 216.109375 233.4375 216.195312 233.4375 C 224.277344 233.230469 232.679688 230.328125 241.316406 224.75 C 239.890625 223.800781 238.550781 222.746094 237.292969 221.582031 Z M 237.292969 221.582031 " fill-opacity="1" fill-rule="nonzero"/><path fill="#c36a2d" d="M 247.75 261.855469 C 237.304688 272.25 224.75 277.503906 210.402344 277.503906 C 209.878906 277.503906 209.363281 277.503906 208.835938 277.503906 C 192.367188 277.070312 179.820312 272.007812 171.550781 262.453125 C 159.953125 249.078125 160.507812 231.359375 160.839844 227.046875 C 159.457031 226.519531 158.046875 225.921875 156.605469 225.261719 C 145.628906 220.191406 137.882812 210.441406 133.898438 196.78125 C 128.433594 198.613281 105.523438 205.800781 80.753906 206.167969 C 68.148438 206.351562 59.140625 210.375 57.507812 216.476562 C 61.371094 214.339844 69.972656 210.550781 80.238281 212.257812 C 80.398438 212.28125 80.542969 212.335938 80.679688 212.421875 C 80.816406 212.507812 80.933594 212.613281 81.027344 212.746094 C 81.121094 212.875 81.183594 213.019531 81.222656 213.175781 C 81.257812 213.332031 81.261719 213.488281 81.238281 213.648438 C 81.210938 213.804688 81.15625 213.953125 81.070312 214.089844 C 80.984375 214.226562 80.875 214.339844 80.746094 214.433594 C 80.613281 214.527344 80.472656 214.589844 80.3125 214.628906 C 80.15625 214.664062 80 214.667969 79.839844 214.640625 C 68.820312 212.8125 59.609375 217.960938 57.300781 219.402344 C 57.429688 220.429688 57.726562 221.410156 58.191406 222.339844 C 60.796875 221.320312 67.855469 218.800781 73.894531 218.839844 C 74.054688 218.839844 74.210938 218.871094 74.359375 218.933594 C 74.507812 218.996094 74.636719 219.082031 74.75 219.199219 C 74.863281 219.3125 74.953125 219.441406 75.011719 219.59375 C 75.074219 219.742188 75.101562 219.894531 75.101562 220.058594 C 75.097656 220.214844 75.066406 220.367188 75 220.515625 C 74.9375 220.660156 74.851562 220.789062 74.734375 220.902344 C 74.621094 221.015625 74.492188 221.101562 74.34375 221.160156 C 74.199219 221.222656 74.042969 221.253906 73.882812 221.253906 L 73.710938 221.253906 C 68.464844 221.253906 62.210938 223.398438 59.5 224.425781 C 62.058594 227.800781 66.648438 230.984375 72.832031 233.484375 C 81.933594 237.199219 92.71875 237.3125 103.152344 237.425781 C 109.308594 237.492188 115.230469 237.558594 120.738281 238.3125 C 122.042969 238.410156 139.339844 239.761719 150.210938 244.355469 C 150.472656 244.46875 150.671875 244.652344 150.804688 244.910156 C 150.941406 245.164062 150.976562 245.433594 150.917969 245.714844 C 150.859375 245.996094 150.71875 246.226562 150.496094 246.40625 C 150.269531 246.585938 150.015625 246.675781 149.726562 246.675781 C 149.558594 246.675781 149.398438 246.644531 149.242188 246.578125 C 144.894531 244.75 139.390625 243.433594 134.347656 242.527344 C 140.105469 245.800781 144.125 250.878906 146.546875 257.9375 C 153.890625 279.367188 148.304688 293.585938 144.226562 303.964844 C 142.460938 308.46875 141.0625 312.019531 141.183594 315 C 141.339844 318.921875 144.132812 322.390625 148.464844 324.054688 C 155.96875 326.949219 165.261719 323.714844 173.332031 315.457031 C 177.167969 311.527344 180.453125 307.804688 183.632812 304.203125 C 190.304688 296.640625 196.0625 290.113281 203.226562 286.472656 C 197.601562 286.4375 192.003906 286.023438 186.433594 285.238281 C 186.277344 285.210938 186.128906 285.15625 185.992188 285.074219 C 185.855469 284.988281 185.742188 284.882812 185.648438 284.75 C 185.554688 284.621094 185.488281 284.476562 185.453125 284.320312 C 185.417969 284.167969 185.410156 284.007812 185.4375 283.851562 C 185.460938 283.691406 185.519531 283.546875 185.601562 283.410156 C 185.6875 283.273438 185.792969 283.160156 185.925781 283.066406 C 186.054688 282.972656 186.199219 282.90625 186.355469 282.871094 C 186.511719 282.832031 186.667969 282.828125 186.824219 282.855469 C 194.703125 283.953125 202.613281 284.316406 210.558594 283.945312 C 212.472656 283.574219 214.402344 283.390625 216.355469 283.394531 C 218.285156 283.394531 220.113281 283.394531 221.820312 283.355469 C 225.683594 283.3125 229.03125 283.277344 232.164062 283.496094 C 232.25 283.472656 232.339844 283.460938 232.433594 283.457031 L 255.308594 282.859375 C 255.46875 282.855469 255.625 282.882812 255.773438 282.9375 C 255.921875 282.996094 256.054688 283.078125 256.171875 283.191406 C 256.285156 283.300781 256.378906 283.429688 256.441406 283.574219 C 256.507812 283.71875 256.542969 283.871094 256.546875 284.03125 C 256.550781 284.191406 256.523438 284.347656 256.46875 284.496094 C 256.410156 284.644531 256.328125 284.777344 256.21875 284.894531 C 256.109375 285.011719 255.980469 285.101562 255.835938 285.167969 C 255.691406 285.230469 255.535156 285.265625 255.375 285.273438 L 242.507812 285.621094 C 247.027344 287.277344 251.875 290.109375 258.082031 294.925781 C 274.222656 307.476562 279.058594 306.859375 282.921875 303.503906 C 272.011719 293.5 258 275.667969 247.75 261.855469 Z M 247.75 261.855469 " fill-opacity="1" fill-rule="nonzero"/><path fill="#ffffff" d="M 273.402344 222.203125 C 273.039062 225.9375 271.808594 228.523438 269.8125 229.695312 C 267.949219 230.71875 265.953125 231.203125 263.828125 231.144531 C 260.632812 231.082031 257.613281 230.335938 254.761719 228.894531 L 254.65625 228.894531 C 250.742188 228.890625 247.0625 227.960938 243.617188 226.109375 C 234.675781 232.085938 226.621094 234.75 219.71875 235.539062 C 221.394531 237.679688 222.445312 241.261719 222.445312 245.488281 C 222.445312 252.371094 219.648438 257.554688 215.9375 257.554688 C 212.230469 257.554688 209.410156 252.371094 209.410156 245.488281 C 209.410156 241.355469 210.421875 237.835938 212.035156 235.683594 C 209.109375 235.449219 206.25 234.878906 203.460938 233.96875 C 198.042969 232.222656 193.261719 229.398438 189.121094 225.496094 C 188.386719 226.070312 187.621094 226.589844 186.816406 227.0625 C 185.054688 228.070312 183.1875 228.824219 181.21875 229.328125 C 179.25 229.832031 177.253906 230.066406 175.222656 230.03125 C 171.101562 229.953125 167.097656 229.238281 163.210938 227.878906 C 162.964844 232.828125 163.050781 248.941406 173.390625 260.871094 C 181.195312 269.882812 193.144531 274.65625 208.90625 275.074219 C 223.332031 275.453125 235.90625 270.34375 246.292969 259.886719 C 240.449219 251.964844 236.480469 246.234375 236.441406 246.175781 C 236.351562 246.046875 236.289062 245.902344 236.253906 245.746094 C 236.222656 245.589844 236.21875 245.429688 236.246094 245.273438 C 236.277344 245.117188 236.332031 244.96875 236.417969 244.835938 C 236.507812 244.703125 236.617188 244.589844 236.746094 244.496094 C 236.878906 244.40625 237.023438 244.34375 237.179688 244.308594 C 237.335938 244.277344 237.492188 244.273438 237.652344 244.300781 C 237.808594 244.328125 237.953125 244.386719 238.089844 244.472656 C 238.222656 244.5625 238.335938 244.667969 238.429688 244.800781 C 238.472656 244.863281 242.695312 250.964844 248.84375 259.28125 C 259.402344 273.558594 274.324219 292.652344 285.503906 302.59375 C 290.886719 307.371094 293.886719 308.640625 295.460938 308.867188 C 299.246094 309.410156 302.664062 309.027344 305.433594 307.78125 C 303.664062 303.484375 297.929688 297.242188 297.867188 297.160156 C 297.757812 297.042969 297.675781 296.910156 297.621094 296.757812 C 297.566406 296.609375 297.542969 296.453125 297.546875 296.292969 C 297.554688 296.132812 297.59375 295.980469 297.660156 295.835938 C 297.726562 295.691406 297.820312 295.5625 297.9375 295.453125 C 298.054688 295.347656 298.1875 295.265625 298.339844 295.207031 C 298.492188 295.152344 298.644531 295.128906 298.804688 295.136719 C 298.964844 295.144531 299.121094 295.179688 299.265625 295.246094 C 299.410156 295.316406 299.539062 295.40625 299.644531 295.527344 C 299.902344 295.804688 305.445312 301.855469 307.546875 306.566406 C 308.710938 305.738281 309.679688 304.71875 310.445312 303.507812 C 306.917969 294.457031 301.429688 290.046875 301.371094 289.992188 C 301.246094 289.894531 301.148438 289.773438 301.074219 289.636719 C 300.996094 289.496094 300.949219 289.347656 300.933594 289.191406 C 300.914062 289.035156 300.929688 288.878906 300.972656 288.726562 C 301.015625 288.574219 301.085938 288.4375 301.183594 288.3125 C 301.28125 288.1875 301.398438 288.085938 301.539062 288.007812 C 301.675781 287.929688 301.824219 287.882812 301.980469 287.859375 C 302.136719 287.839844 302.292969 287.851562 302.445312 287.890625 C 302.597656 287.933594 302.738281 288 302.863281 288.097656 C 303.09375 288.273438 308.070312 292.238281 311.804688 300.496094 C 313.585938 294.703125 311.988281 286.441406 307.164062 276.796875 C 296.128906 254.746094 279.324219 226.554688 275.714844 220.539062 C 274.933594 221.125 274.164062 221.679688 273.402344 222.203125 Z M 273.402344 222.203125 " fill-opacity="1" fill-rule="nonzero"/><path fill="#ef4136" d="M 231.988281 192.480469 C 233.183594 191.90625 234.417969 191.792969 235.699219 192.132812 C 240.90625 193.578125 243.292969 203.191406 245.660156 214.644531 C 246.683594 219.589844 250.292969 223.949219 255.570312 226.609375 C 260.402344 229.019531 265.488281 229.4375 268.582031 227.617188 C 269.917969 226.828125 270.816406 224.589844 271.035156 221.472656 L 271.035156 221.445312 C 271.785156 210.9375 265.492188 193.503906 253.671875 182.515625 C 253.1875 182.03125 252.648438 181.578125 252.121094 181.136719 C 245.589844 175.578125 238.660156 175.019531 231.535156 179.46875 C 231.273438 179.628906 231.015625 179.796875 230.765625 179.953125 L 230.53125 180.117188 C 230.355469 180.242188 230.183594 180.363281 230.011719 180.492188 L 229.742188 180.691406 C 229.578125 180.816406 229.410156 180.945312 229.257812 181.082031 L 229.027344 181.265625 L 228.359375 181.835938 L 228.066406 182.101562 L 227.703125 182.433594 C 227.585938 182.539062 227.472656 182.644531 227.359375 182.757812 L 227.074219 183.03125 L 226.707031 183.398438 L 226.539062 183.574219 C 226.054688 184.054688 225.597656 184.578125 225.15625 185.09375 L 225.089844 185.171875 C 222.316406 188.5 220.03125 192.136719 218.222656 196.074219 C 222.691406 195.863281 227.039062 195.027344 231.269531 193.570312 C 231.273438 193.332031 231.339844 193.117188 231.46875 192.917969 C 231.597656 192.722656 231.773438 192.574219 231.988281 192.480469 Z M 231.988281 192.480469 " fill-opacity="1" fill-rule="nonzero"/><path fill="#efae2e" d="M 220.03125 245.488281 C 220.03125 246.121094 220.003906 246.75 219.953125 247.371094 C 219.898438 247.992188 219.824219 248.597656 219.71875 249.183594 C 219.617188 249.769531 219.492188 250.324219 219.339844 250.851562 C 219.191406 251.378906 219.023438 251.867188 218.832031 252.316406 C 218.640625 252.765625 218.4375 253.164062 218.210938 253.519531 C 217.988281 253.871094 217.753906 254.167969 217.503906 254.410156 C 217.257812 254.652344 217 254.835938 216.738281 254.960938 C 216.472656 255.085938 216.207031 255.144531 215.9375 255.144531 C 215.671875 255.144531 215.402344 255.085938 215.140625 254.960938 C 214.878906 254.835938 214.621094 254.652344 214.371094 254.410156 C 214.125 254.167969 213.890625 253.871094 213.664062 253.519531 C 213.441406 253.164062 213.234375 252.765625 213.046875 252.316406 C 212.855469 251.867188 212.6875 251.378906 212.535156 250.851562 C 212.386719 250.324219 212.261719 249.769531 212.160156 249.183594 C 212.054688 248.597656 211.976562 247.992188 211.925781 247.371094 C 211.875 246.75 211.847656 246.121094 211.847656 245.488281 C 211.847656 244.851562 211.875 244.222656 211.925781 243.601562 C 211.976562 242.980469 212.054688 242.375 212.160156 241.789062 C 212.261719 241.203125 212.386719 240.648438 212.535156 240.121094 C 212.6875 239.59375 212.855469 239.105469 213.046875 238.65625 C 213.234375 238.207031 213.441406 237.808594 213.664062 237.457031 C 213.890625 237.101562 214.125 236.804688 214.371094 236.5625 C 214.621094 236.320312 214.878906 236.136719 215.140625 236.011719 C 215.402344 235.890625 215.671875 235.828125 215.9375 235.828125 C 216.207031 235.828125 216.472656 235.890625 216.738281 236.011719 C 217 236.136719 217.257812 236.320312 217.503906 236.5625 C 217.753906 236.804688 217.988281 237.101562 218.210938 237.457031 C 218.4375 237.808594 218.640625 238.207031 218.832031 238.65625 C 219.023438 239.105469 219.191406 239.59375 219.339844 240.121094 C 219.492188 240.648438 219.617188 241.203125 219.71875 241.789062 C 219.824219 242.375 219.898438 242.980469 219.953125 243.601562 C 220.003906 244.222656 220.03125 244.851562 220.03125 245.488281 Z M 220.03125 245.488281 " fill-opacity="1" fill-rule="nonzero"/><path fill="#fee440" d="M 215.9375 235.828125 C 214.542969 235.828125 213.039062 237.984375 212.300781 241.261719 C 212.300781 241.527344 212.277344 241.789062 212.277344 242.058594 C 212.277344 247.585938 214.4375 251.714844 216.367188 251.714844 C 217.496094 251.714844 218.691406 250.308594 219.5 248.050781 C 219.78125 246.859375 219.941406 245.648438 219.984375 244.425781 C 219.75 239.441406 217.746094 235.828125 215.9375 235.828125 Z M 215.9375 235.828125 " fill-opacity="1" fill-rule="nonzero"/><path fill="#ffffff" d="M 301.066406 159.628906 C 299.289062 144.296875 297.277344 126.925781 284.921875 113.148438 C 274.773438 101.828125 258.707031 94.839844 237.195312 92.390625 C 219.988281 90.421875 199.488281 91.550781 179.472656 95.574219 C 175.902344 96.3125 172.296875 96.695312 168.648438 96.71875 C 147.628906 96.71875 137.074219 82.40625 127.585938 69.5625 C 123.3125 63.769531 119.273438 58.300781 114.59375 54.542969 C 109.152344 50.195312 103.339844 49.949219 99.417969 53.941406 C 92.601562 60.867188 93.257812 77.75 107.953125 95.332031 C 118.203125 107.59375 130.328125 114.074219 144.007812 114.601562 C 154.234375 114.996094 161.554688 111.707031 161.625 111.707031 C 161.769531 111.640625 161.925781 111.601562 162.085938 111.597656 C 162.246094 111.59375 162.398438 111.617188 162.550781 111.671875 C 162.699219 111.730469 162.832031 111.8125 162.949219 111.921875 C 163.066406 112.03125 163.160156 112.15625 163.226562 112.300781 C 163.292969 112.449219 163.328125 112.601562 163.335938 112.761719 C 163.339844 112.921875 163.316406 113.074219 163.257812 113.226562 C 163.203125 113.375 163.121094 113.507812 163.011719 113.625 C 162.902344 113.742188 162.777344 113.835938 162.628906 113.902344 C 162.390625 114.011719 157.886719 116.03125 150.925781 116.796875 C 150.875 117.058594 150.753906 117.28125 150.558594 117.460938 C 139.550781 127.527344 130.015625 160.152344 134.214844 187.117188 C 136.144531 199.480469 141.757812 215.746094 157.625 223.078125 C 169.21875 228.425781 178.609375 229.078125 185.574219 225.007812 C 196.460938 218.65625 197.871094 202.703125 197.882812 202.542969 C 197.898438 202.382812 197.941406 202.230469 198.011719 202.089844 C 198.085938 201.945312 198.183594 201.820312 198.304688 201.71875 C 198.429688 201.613281 198.566406 201.535156 198.71875 201.488281 C 198.871094 201.4375 199.027344 201.417969 199.1875 201.433594 C 199.347656 201.445312 199.5 201.488281 199.644531 201.5625 C 199.789062 201.632812 199.910156 201.730469 200.015625 201.855469 C 200.121094 201.976562 200.195312 202.113281 200.246094 202.265625 C 200.296875 202.421875 200.3125 202.578125 200.300781 202.738281 C 200.261719 203.25 199.464844 212.285156 194.367188 219.839844 C 197.902344 222.410156 201.785156 224.253906 206.015625 225.371094 C 215.871094 227.976562 225.824219 226.125 235.5625 219.867188 C 231.941406 215.964844 229.078125 211.570312 226.96875 206.679688 C 226.902344 206.53125 226.867188 206.375 226.863281 206.207031 C 226.859375 206.042969 226.886719 205.886719 226.949219 205.734375 C 227.011719 205.582031 227.101562 205.445312 227.21875 205.328125 C 227.335938 205.214844 227.46875 205.125 227.621094 205.0625 C 227.777344 205.003906 227.933594 204.976562 228.097656 204.980469 C 228.265625 204.984375 228.421875 205.019531 228.570312 205.085938 C 228.722656 205.15625 228.851562 205.25 228.960938 205.371094 C 229.074219 205.492188 229.15625 205.632812 229.210938 205.789062 C 229.246094 205.859375 232.257812 213.292969 238.292969 219.203125 C 240.046875 220.941406 241.992188 222.425781 244.128906 223.664062 L 244.222656 223.710938 C 246.097656 224.769531 248.089844 225.53125 250.191406 226 C 246.609375 223.101562 244.179688 219.3125 243.3125 215.148438 C 241.863281 208.070312 239.449219 196.363281 235.433594 194.601562 C 229.351562 197.195312 223.003906 198.515625 216.394531 198.5625 L 216.078125 198.5625 C 196.363281 198.5625 181.332031 186.699219 178.820312 184.589844 C 178.425781 184.589844 178.03125 184.589844 177.636719 184.589844 C 168.273438 184.589844 158.703125 181.902344 149.15625 176.582031 C 149.015625 176.503906 148.894531 176.402344 148.796875 176.277344 C 148.699219 176.152344 148.625 176.011719 148.582031 175.859375 C 148.539062 175.703125 148.527344 175.546875 148.542969 175.386719 C 148.5625 175.230469 148.613281 175.078125 148.691406 174.941406 C 148.769531 174.800781 148.871094 174.679688 148.996094 174.582031 C 149.121094 174.480469 149.261719 174.410156 149.414062 174.367188 C 149.570312 174.324219 149.726562 174.308594 149.886719 174.328125 C 150.046875 174.347656 150.195312 174.394531 150.335938 174.472656 C 160.050781 179.890625 169.761719 182.472656 179.203125 182.152344 L 179.289062 182.152344 C 200.953125 181.382812 214.34375 165.480469 214.476562 165.316406 C 214.734375 165.007812 215.0625 164.863281 215.464844 164.882812 C 215.867188 164.902344 216.179688 165.074219 216.40625 165.40625 C 218.3125 167.902344 220.488281 170.132812 222.929688 172.105469 C 225.371094 174.078125 228.011719 175.734375 230.847656 177.074219 C 238.671875 172.457031 246.566406 173.214844 253.710938 179.292969 C 254.117188 179.632812 254.511719 179.984375 254.902344 180.34375 C 262.632812 179.160156 270.808594 176 279.230469 170.972656 C 279.367188 170.890625 279.515625 170.839844 279.671875 170.816406 C 279.832031 170.792969 279.988281 170.800781 280.144531 170.839844 C 280.300781 170.878906 280.441406 170.945312 280.570312 171.039062 C 280.699219 171.136719 280.804688 171.25 280.886719 171.390625 C 280.96875 171.527344 281.019531 171.675781 281.042969 171.832031 C 281.066406 171.992188 281.058594 172.148438 281.023438 172.304688 C 280.984375 172.457031 280.914062 172.601562 280.820312 172.730469 C 280.722656 172.855469 280.609375 172.960938 280.46875 173.042969 C 272.421875 177.871094 264.5625 181.007812 257.058594 182.425781 C 267.828125 193.410156 273.347656 208.695312 273.527344 219.171875 C 274.109375 218.746094 274.699219 218.296875 275.292969 217.832031 C 277.367188 216.183594 279.351562 214.433594 281.242188 212.578125 C 285.753906 208.144531 289.023438 202.933594 291.0625 196.949219 C 296.910156 180.25 293.234375 160.527344 289.128906 146.921875 C 289.082031 146.765625 289.066406 146.609375 289.082031 146.449219 C 289.097656 146.289062 289.140625 146.140625 289.21875 146 C 289.292969 145.855469 289.394531 145.734375 289.519531 145.632812 C 289.640625 145.53125 289.78125 145.457031 289.933594 145.410156 C 290.089844 145.363281 290.246094 145.351562 290.40625 145.367188 C 290.5625 145.382812 290.714844 145.425781 290.855469 145.503906 C 290.996094 145.578125 291.117188 145.679688 291.222656 145.804688 C 291.324219 145.925781 291.394531 146.066406 291.441406 146.21875 C 295.625 160.070312 299.351562 180.132812 293.476562 197.355469 C 295.6875 204.261719 299.328125 212.042969 307.703125 212.230469 C 312 212.328125 314.757812 211.402344 315.890625 209.464844 C 318.660156 204.714844 312.648438 193.835938 306.792969 184.011719 C 303.195312 178.003906 302.210938 169.476562 301.066406 159.628906 Z M 301.066406 159.628906 " fill-opacity="1" fill-rule="nonzero"/><path fill="#d1d3d4" d="M 197.976562 202.109375 C 194.769531 203.558594 184.785156 205.398438 164.484375 188.042969 C 162.078125 185.980469 160.042969 183.597656 158.390625 180.894531 C 155.199219 179.679688 152.117188 178.238281 149.140625 176.574219 C 149 176.496094 148.882812 176.394531 148.78125 176.269531 C 148.683594 176.140625 148.613281 176.003906 148.566406 175.847656 C 148.523438 175.695312 148.511719 175.539062 148.53125 175.378906 C 148.550781 175.21875 148.597656 175.070312 148.675781 174.929688 C 148.753906 174.789062 148.855469 174.671875 148.980469 174.570312 C 149.105469 174.472656 149.246094 174.398438 149.402344 174.355469 C 149.554688 174.3125 149.710938 174.300781 149.871094 174.320312 C 150.03125 174.335938 150.179688 174.386719 150.320312 174.464844 C 152.363281 175.601562 154.457031 176.632812 156.601562 177.558594 C 145.0625 152.871094 162.621094 113.886719 162.621094 113.886719 C 162.378906 114 157.875 116.015625 150.914062 116.785156 C 150.867188 117.042969 150.742188 117.265625 150.546875 117.445312 C 139.542969 127.515625 130.003906 160.136719 134.203125 187.101562 C 136.136719 199.464844 141.75 215.730469 157.617188 223.0625 C 169.210938 228.414062 178.597656 229.066406 185.566406 224.996094 C 196.449219 218.644531 197.859375 202.6875 197.875 202.53125 C 197.882812 202.382812 197.917969 202.242188 197.976562 202.109375 Z M 197.976562 202.109375 " fill-opacity="1" fill-rule="nonzero"/><path fill="#3f1900" d="M 218.75 189.886719 L 219.03125 189.429688 L 219.179688 189.183594 L 219.519531 188.652344 L 219.625 188.476562 L 220.109375 187.769531 L 220.234375 187.585938 L 220.601562 187.046875 L 220.78125 186.789062 L 221.128906 186.304688 L 221.316406 186.042969 C 221.445312 185.871094 221.578125 185.691406 221.710938 185.519531 L 221.871094 185.3125 C 222.054688 185.066406 222.25 184.828125 222.441406 184.582031 L 222.546875 184.453125 C 222.710938 184.253906 222.871094 184.054688 223.03125 183.859375 C 223.097656 183.777344 223.167969 183.695312 223.238281 183.617188 L 223.664062 183.132812 L 223.890625 182.882812 C 224.042969 182.71875 224.191406 182.550781 224.34375 182.398438 L 224.546875 182.183594 C 224.777344 181.945312 224.996094 181.699219 225.230469 181.488281 C 225.457031 181.261719 225.6875 181.039062 225.925781 180.816406 L 226.148438 180.613281 L 226.660156 180.132812 L 226.921875 179.910156 C 227.09375 179.757812 227.269531 179.609375 227.445312 179.464844 L 227.6875 179.265625 C 227.921875 179.082031 228.171875 178.90625 228.382812 178.730469 L 228.476562 178.652344 C 223.355469 176.011719 218.960938 172.472656 215.285156 168.035156 C 211.90625 171.65625 200.242188 182.65625 182.410156 184.40625 C 187.453125 188.140625 199.929688 195.992188 215.527344 196.175781 C 215.582031 196.046875 215.648438 195.890625 215.71875 195.734375 C 215.746094 195.675781 215.769531 195.617188 215.800781 195.554688 C 215.828125 195.492188 215.851562 195.429688 215.882812 195.359375 C 215.910156 195.292969 215.945312 195.226562 215.976562 195.152344 L 216.070312 194.949219 L 216.191406 194.691406 C 216.21875 194.628906 216.25 194.566406 216.28125 194.5 C 216.351562 194.351562 216.421875 194.203125 216.5 194.042969 L 216.546875 193.941406 C 216.621094 193.796875 216.691406 193.648438 216.769531 193.496094 C 216.800781 193.429688 216.832031 193.367188 216.867188 193.300781 C 216.902344 193.230469 216.988281 193.058594 217.054688 192.933594 L 217.171875 192.710938 C 217.234375 192.585938 217.300781 192.453125 217.375 192.324219 L 217.484375 192.105469 C 217.578125 191.9375 217.671875 191.769531 217.765625 191.597656 L 217.828125 191.484375 L 218.1875 190.84375 L 218.304688 190.644531 C 218.394531 190.484375 218.484375 190.332031 218.578125 190.160156 Z M 218.75 189.886719 " fill-opacity="1" fill-rule="nonzero"/><path fill="#c36a2d" d="M 306.777344 184.011719 C 303.878906 179.128906 302.671875 172.582031 301.707031 165.003906 C 301.609375 164.203125 301.511719 163.390625 301.414062 162.589844 C 301.386719 162.371094 301.359375 162.160156 301.335938 161.941406 C 301.246094 161.179688 301.15625 160.410156 301.066406 159.628906 C 299.289062 144.296875 297.277344 126.925781 284.921875 113.148438 C 274.773438 101.828125 258.707031 94.839844 237.195312 92.390625 C 232.566406 91.867188 227.703125 91.566406 222.675781 91.480469 C 221.867188 96.8125 221.464844 102.171875 221.464844 107.5625 C 221.464844 142.800781 238.441406 172.210938 261.03125 179.058594 C 267.453125 177.199219 273.515625 174.515625 279.214844 171.015625 C 279.351562 170.933594 279.5 170.882812 279.660156 170.859375 C 279.816406 170.835938 279.972656 170.84375 280.128906 170.882812 C 280.285156 170.921875 280.425781 170.988281 280.554688 171.082031 C 280.683594 171.179688 280.789062 171.296875 280.871094 171.433594 C 280.953125 171.570312 281.007812 171.71875 281.03125 171.875 C 281.054688 172.035156 281.046875 172.191406 281.007812 172.347656 C 280.96875 172.5 280.902344 172.644531 280.804688 172.773438 C 280.710938 172.902344 280.59375 173.007812 280.457031 173.089844 C 275.769531 175.9375 270.847656 178.28125 265.683594 180.125 C 267.476562 180.417969 269.285156 180.5625 271.101562 180.566406 C 279.316406 180.566406 287.097656 177.617188 293.929688 172.398438 C 293.351562 163.105469 291.292969 154.171875 289.097656 146.957031 C 289.050781 146.804688 289.035156 146.648438 289.050781 146.488281 C 289.070312 146.328125 289.113281 146.179688 289.191406 146.039062 C 289.265625 145.894531 289.363281 145.773438 289.488281 145.671875 C 289.613281 145.570312 289.753906 145.496094 289.90625 145.449219 C 290.058594 145.40625 290.214844 145.390625 290.375 145.40625 C 290.535156 145.421875 290.6875 145.46875 290.828125 145.542969 C 290.96875 145.617188 291.089844 145.71875 291.191406 145.84375 C 291.292969 145.964844 291.367188 146.105469 291.414062 146.257812 C 293.601562 153.386719 295.117188 160.652344 295.964844 168.058594 C 296.027344 168.636719 296.082031 169.222656 296.132812 169.8125 C 296.132812 169.835938 296.132812 169.855469 296.132812 169.878906 C 296.9375 178.980469 296.453125 188.558594 293.4375 197.394531 C 295.652344 204.300781 299.289062 212.082031 307.664062 212.269531 C 311.960938 212.367188 314.71875 211.441406 315.851562 209.503906 C 318.648438 204.714844 312.632812 193.835938 306.777344 184.011719 Z M 306.777344 184.011719 " fill-opacity="1" fill-rule="nonzero"/><path fill="#c36a2d" d="M 212.660156 91.566406 C 201.488281 92.011719 190.417969 93.332031 179.457031 95.535156 C 175.886719 96.273438 172.28125 96.65625 168.636719 96.679688 C 160.089844 96.679688 153.273438 94.3125 147.558594 90.640625 C 147.074219 90.332031 146.589844 90.007812 146.109375 89.675781 L 145.683594 89.363281 C 145.355469 89.132812 145.03125 88.882812 144.714844 88.652344 L 144.234375 88.273438 C 143.933594 88.042969 143.640625 87.792969 143.347656 87.570312 L 142.867188 87.171875 C 142.566406 86.921875 142.273438 86.667969 141.976562 86.40625 L 141.566406 86.042969 C 141.203125 85.714844 140.847656 85.382812 140.488281 85.042969 L 140.316406 84.878906 C 139.898438 84.484375 139.492188 84.078125 139.085938 83.667969 L 138.785156 83.355469 L 137.898438 82.433594 L 137.5 81.992188 L 136.734375 81.152344 L 136.320312 80.671875 C 136.066406 80.386719 135.835938 80.097656 135.574219 79.8125 L 135.195312 79.367188 C 134.917969 79.039062 134.644531 78.710938 134.371094 78.378906 L 134.105469 78.058594 L 133.078125 76.746094 L 132.894531 76.511719 C 132.605469 76.144531 132.3125 75.777344 132.027344 75.40625 L 131.671875 74.921875 L 130.984375 74.027344 L 130.605469 73.523438 C 130.382812 73.234375 130.164062 72.9375 129.945312 72.648438 L 129.574219 72.164062 L 128.871094 71.199219 L 128.574219 70.800781 L 127.609375 69.5 L 126.738281 68.328125 C 126.691406 68.253906 126.636719 68.1875 126.585938 68.117188 L 125.832031 67.144531 C 125.777344 67.066406 125.71875 66.996094 125.667969 66.921875 C 125.421875 66.59375 125.183594 66.265625 124.933594 65.957031 L 124.78125 65.753906 L 124.007812 64.742188 L 123.90625 64.605469 C 122.703125 63.042969 121.492188 61.542969 120.285156 60.125 C 118.558594 58.085938 116.664062 56.21875 114.601562 54.519531 C 109.164062 50.171875 103.351562 49.925781 99.425781 53.917969 C 92.601562 60.867188 93.257812 77.75 107.953125 95.332031 C 109.71875 97.445312 111.605469 99.445312 113.617188 101.328125 L 114.070312 101.738281 C 114.417969 102.050781 114.765625 102.371094 115.113281 102.671875 L 115.816406 103.273438 C 116.164062 103.5625 116.507812 103.855469 116.859375 104.136719 C 117.105469 104.335938 117.34375 104.523438 117.597656 104.714844 C 117.941406 104.980469 118.285156 105.246094 118.628906 105.503906 C 118.894531 105.699219 119.164062 105.882812 119.429688 106.070312 C 119.695312 106.261719 120.089844 106.554688 120.429688 106.777344 C 120.765625 107 121.019531 107.160156 121.3125 107.351562 C 121.609375 107.542969 121.941406 107.757812 122.28125 107.949219 C 122.617188 108.144531 122.964844 108.355469 123.308594 108.554688 C 123.652344 108.75 123.859375 108.882812 124.136719 109.035156 C 124.570312 109.273438 125.003906 109.519531 125.445312 109.722656 C 125.636719 109.816406 125.824219 109.929688 126.023438 110.019531 C 127.945312 110.96875 129.921875 111.773438 131.960938 112.433594 L 132.015625 112.433594 C 132.660156 112.648438 133.316406 112.84375 133.984375 113.027344 L 134.226562 113.085938 C 134.828125 113.246094 135.429688 113.398438 136.039062 113.535156 L 136.390625 113.601562 C 136.960938 113.726562 137.535156 113.84375 138.117188 113.941406 L 138.203125 113.941406 C 140.125 114.269531 142.054688 114.46875 144 114.546875 C 154.230469 114.945312 161.546875 111.652344 161.621094 111.652344 C 161.765625 111.585938 161.917969 111.550781 162.078125 111.542969 C 162.238281 111.539062 162.394531 111.5625 162.546875 111.617188 C 162.695312 111.675781 162.828125 111.757812 162.945312 111.867188 C 163.0625 111.976562 163.15625 112.101562 163.222656 112.25 C 163.289062 112.394531 163.324219 112.546875 163.332031 112.707031 C 163.335938 112.867188 163.3125 113.023438 163.253906 113.171875 C 163.199219 113.320312 163.117188 113.457031 163.007812 113.574219 C 162.898438 113.691406 162.773438 113.78125 162.625 113.847656 C 162.382812 113.960938 157.882812 115.976562 150.917969 116.746094 C 150.871094 117.007812 150.75 117.226562 150.550781 117.40625 C 143.574219 123.789062 137.195312 139.234375 134.523438 156.554688 C 142.613281 164.980469 152.496094 169.925781 163.15625 169.925781 C 190.570312 169.949219 212.792969 137.265625 212.792969 96.949219 C 212.792969 95.132812 212.746094 93.332031 212.660156 91.566406 Z M 212.660156 91.566406 " fill-opacity="1" fill-rule="nonzero"/><path fill="#ffffff" d="M 57.492188 216.476562 C 61.355469 214.339844 69.957031 210.550781 80.222656 212.257812 C 80.382812 212.28125 80.53125 212.335938 80.667969 212.421875 C 80.804688 212.507812 80.917969 212.613281 81.011719 212.746094 C 81.105469 212.875 81.171875 213.019531 81.207031 213.175781 C 81.242188 213.332031 81.25 213.488281 81.222656 213.648438 C 81.195312 213.804688 81.140625 213.953125 81.054688 214.089844 C 80.96875 214.226562 80.863281 214.339844 80.730469 214.433594 C 80.601562 214.527344 80.457031 214.589844 80.300781 214.628906 C 80.144531 214.664062 79.984375 214.667969 79.828125 214.640625 C 68.820312 212.8125 59.609375 217.960938 57.300781 219.402344 C 57.429688 220.429688 57.726562 221.410156 58.191406 222.339844 C 60.796875 221.320312 67.855469 218.800781 73.894531 218.839844 C 74.054688 218.839844 74.210938 218.871094 74.359375 218.933594 C 74.507812 218.996094 74.636719 219.082031 74.75 219.199219 C 74.863281 219.3125 74.953125 219.441406 75.011719 219.59375 C 75.074219 219.742188 75.101562 219.894531 75.101562 220.058594 C 75.097656 220.214844 75.066406 220.367188 75 220.515625 C 74.9375 220.660156 74.851562 220.789062 74.734375 220.902344 C 74.621094 221.015625 74.492188 221.101562 74.34375 221.160156 C 74.199219 221.222656 74.042969 221.253906 73.882812 221.253906 L 73.710938 221.253906 C 68.464844 221.253906 62.210938 223.398438 59.5 224.425781 C 61.652344 227.277344 65.269531 229.992188 70.066406 232.289062 C 80.929688 231.636719 89.464844 225.046875 89.464844 216.949219 C 89.464844 212.71875 87.117188 208.886719 83.320312 206.101562 C 82.460938 206.128906 81.59375 206.15625 80.730469 206.167969 C 68.136719 206.351562 59.125 210.375 57.492188 216.476562 Z M 57.492188 216.476562 " fill-opacity="1" fill-rule="nonzero"/><path fill="#c36a2d" d="M 299.644531 295.539062 C 299.902344 295.820312 305.445312 301.867188 307.546875 306.578125 C 308.710938 305.75 309.679688 304.734375 310.445312 303.523438 C 306.917969 294.472656 301.429688 290.0625 301.371094 290.007812 C 301.246094 289.90625 301.148438 289.789062 301.074219 289.648438 C 300.996094 289.511719 300.949219 289.363281 300.933594 289.207031 C 300.914062 289.046875 300.929688 288.894531 300.972656 288.742188 C 301.015625 288.589844 301.085938 288.449219 301.183594 288.324219 C 301.28125 288.203125 301.398438 288.101562 301.535156 288.023438 C 301.675781 287.945312 301.824219 287.894531 301.980469 287.875 C 302.136719 287.855469 302.292969 287.863281 302.445312 287.90625 C 302.597656 287.945312 302.738281 288.015625 302.863281 288.109375 C 303.09375 288.289062 308.070312 292.253906 311.804688 300.511719 C 313.585938 294.71875 311.988281 286.457031 307.164062 276.808594 C 296.128906 254.757812 279.324219 226.570312 275.714844 220.554688 C 274.949219 221.136719 274.1875 221.683594 273.425781 222.195312 C 273.0625 225.925781 271.832031 228.515625 269.835938 229.6875 C 267.972656 230.710938 265.976562 231.191406 263.851562 231.136719 C 261.71875 231.109375 259.644531 230.746094 257.628906 230.042969 C 256.484375 246.535156 250.933594 254.890625 248.050781 258.164062 L 248.867188 259.273438 C 259.425781 273.546875 274.347656 292.644531 285.527344 302.582031 C 290.910156 307.363281 293.910156 308.632812 295.484375 308.859375 C 299.269531 309.398438 302.691406 309.015625 305.457031 307.773438 C 303.691406 303.476562 297.953125 297.234375 297.890625 297.152344 C 297.785156 297.035156 297.703125 296.902344 297.644531 296.75 C 297.589844 296.597656 297.566406 296.445312 297.574219 296.285156 C 297.578125 296.125 297.617188 295.972656 297.683594 295.824219 C 297.75 295.679688 297.84375 295.554688 297.960938 295.445312 C 298.078125 295.335938 298.214844 295.253906 298.363281 295.199219 C 298.515625 295.144531 298.671875 295.121094 298.832031 295.125 C 298.992188 295.132812 299.144531 295.171875 299.289062 295.238281 C 299.433594 295.304688 299.5625 295.398438 299.671875 295.515625 Z M 299.644531 295.539062 " fill-opacity="1" fill-rule="nonzero"/><path fill="#a04202" d="M 297.867188 297.117188 C 297.746094 297.003906 297.652344 296.867188 297.589844 296.714844 C 297.523438 296.558594 297.492188 296.398438 297.492188 296.230469 C 297.496094 296.066406 297.527344 295.90625 297.597656 295.753906 C 297.664062 295.597656 297.757812 295.464844 297.882812 295.351562 C 298.003906 295.238281 298.144531 295.15625 298.304688 295.097656 C 298.460938 295.042969 298.625 295.023438 298.792969 295.035156 C 298.957031 295.046875 299.117188 295.089844 299.265625 295.167969 C 299.414062 295.246094 299.539062 295.347656 299.644531 295.476562 C 299.902344 295.761719 305.445312 301.808594 307.546875 306.523438 C 308.710938 305.695312 309.679688 304.675781 310.445312 303.464844 C 308.890625 299.414062 306.699219 295.746094 303.867188 292.457031 C 286.894531 297.21875 262.421875 272.992188 248.730469 257.308594 C 248.492188 257.601562 248.246094 257.878906 248.050781 258.113281 L 248.867188 259.226562 C 259.425781 273.5 274.347656 292.59375 285.527344 302.535156 C 290.910156 307.3125 293.910156 308.582031 295.484375 308.808594 C 299.269531 309.351562 302.691406 308.96875 305.457031 307.722656 C 303.664062 303.421875 297.929688 297.207031 297.867188 297.117188 Z M 297.867188 297.117188 " fill-opacity="1" fill-rule="nonzero"/><path fill="#a04202" d="M 311.78125 300.464844 C 312.839844 297.023438 312.695312 292.695312 311.394531 287.730469 C 309.933594 289.335938 308.222656 290.609375 306.265625 291.550781 C 308.503906 294.277344 310.34375 297.246094 311.78125 300.464844 Z M 311.78125 300.464844 " fill-opacity="1" fill-rule="nonzero"/><path fill="#ffffff" d="M 299.644531 295.539062 C 299.902344 295.820312 305.445312 301.867188 307.546875 306.578125 C 308.710938 305.75 309.679688 304.734375 310.445312 303.523438 C 306.917969 294.472656 301.429688 290.0625 301.371094 290.007812 C 301.246094 289.90625 301.148438 289.789062 301.074219 289.648438 C 300.996094 289.511719 300.949219 289.363281 300.933594 289.207031 C 300.914062 289.046875 300.929688 288.894531 300.972656 288.742188 C 301.015625 288.589844 301.085938 288.449219 301.183594 288.324219 C 301.28125 288.203125 301.398438 288.101562 301.535156 288.023438 C 301.675781 287.945312 301.824219 287.894531 301.980469 287.875 C 302.136719 287.855469 302.292969 287.863281 302.445312 287.90625 C 302.597656 287.945312 302.738281 288.015625 302.863281 288.109375 C 303.09375 288.289062 308.070312 292.253906 311.804688 300.511719 C 313.328125 295.554688 312.367188 288.777344 309.03125 280.878906 C 303.632812 278.179688 297.605469 278.078125 292.941406 281.1875 C 285.691406 286.015625 284.34375 296.785156 289.558594 305.859375 C 292.484375 307.996094 294.351562 308.699219 295.476562 308.859375 C 299.257812 309.398438 302.679688 309.015625 305.449219 307.773438 C 303.679688 303.476562 297.945312 297.234375 297.882812 297.152344 C 297.773438 297.035156 297.691406 296.902344 297.636719 296.75 C 297.582031 296.601562 297.558594 296.445312 297.5625 296.285156 C 297.570312 296.125 297.605469 295.972656 297.675781 295.828125 C 297.742188 295.679688 297.835938 295.554688 297.953125 295.445312 C 298.070312 295.335938 298.203125 295.253906 298.355469 295.199219 C 298.503906 295.144531 298.660156 295.121094 298.820312 295.128906 C 298.980469 295.132812 299.132812 295.171875 299.28125 295.238281 C 299.425781 295.304688 299.550781 295.398438 299.660156 295.515625 Z M 299.644531 295.539062 " fill-opacity="1" fill-rule="nonzero"/><path fill="#d1d3d4" d="M 311.78125 300.464844 C 312.839844 297.023438 312.695312 292.695312 311.394531 287.730469 C 309.933594 289.335938 308.222656 290.609375 306.265625 291.550781 C 308.503906 294.277344 310.34375 297.246094 311.78125 300.464844 Z M 311.78125 300.464844 " fill-opacity="1" fill-rule="nonzero"/><path fill="#ffffff" d="M 215.316406 167.992188 C 211.128906 172.371094 206.34375 175.960938 200.972656 178.765625 C 200.972656 178.765625 211.628906 183.359375 225.289062 181.402344 C 225.5 181.191406 225.710938 180.984375 225.929688 180.78125 L 226.152344 180.578125 L 226.664062 180.097656 L 226.925781 179.875 C 227.097656 179.726562 227.273438 179.574219 227.453125 179.429688 L 227.695312 179.234375 C 227.925781 179.050781 228.175781 178.871094 228.390625 178.699219 L 228.480469 178.621094 C 223.367188 175.972656 218.980469 172.429688 215.316406 167.992188 Z M 215.316406 167.992188 " fill-opacity="1" fill-rule="nonzero"/><path fill="#a04202" d="M 186.453125 285.257812 C 186.296875 285.230469 186.148438 285.175781 186.011719 285.09375 C 185.875 285.007812 185.761719 284.902344 185.667969 284.769531 C 185.574219 284.640625 185.507812 284.496094 185.472656 284.339844 C 185.433594 284.183594 185.429688 284.027344 185.457031 283.871094 C 185.480469 283.710938 185.539062 283.566406 185.621094 283.429688 C 185.707031 283.292969 185.8125 283.179688 185.945312 283.085938 C 186.074219 282.992188 186.21875 282.925781 186.375 282.890625 C 186.53125 282.851562 186.6875 282.847656 186.84375 282.875 C 160.222656 277.789062 149.730469 246.695312 149.730469 246.695312 C 149.5625 246.695312 149.402344 246.664062 149.246094 246.597656 C 144.898438 244.765625 139.398438 243.453125 134.351562 242.546875 C 140.113281 245.820312 144.132812 250.898438 146.550781 257.957031 C 153.894531 279.386719 148.3125 293.605469 144.234375 303.984375 C 142.464844 308.488281 141.070312 312.039062 141.1875 315.019531 C 141.34375 318.941406 144.136719 322.40625 148.46875 324.074219 C 155.972656 326.96875 165.269531 323.734375 173.335938 315.476562 C 177.171875 311.546875 180.457031 307.824219 183.636719 304.222656 C 190.308594 296.660156 196.066406 290.132812 203.234375 286.492188 C 197.613281 286.457031 192.019531 286.042969 186.453125 285.257812 Z M 186.453125 285.257812 " fill-opacity="1" fill-rule="nonzero"/><path fill="#a04202" d="M 203.246094 286.492188 C 199.636719 286.457031 196.414062 286.277344 193.78125 286.070312 L 199.53125 288.714844 C 200.722656 287.894531 201.960938 287.152344 203.246094 286.492188 Z M 203.246094 286.492188 " fill-opacity="1" fill-rule="nonzero"/><path fill="#a04202" d="M 232.175781 283.515625 C 232.265625 283.492188 232.355469 283.480469 232.449219 283.476562 L 255.308594 282.859375 C 255.46875 282.855469 255.625 282.882812 255.773438 282.9375 C 255.921875 282.996094 256.054688 283.078125 256.171875 283.191406 C 256.285156 283.300781 256.378906 283.429688 256.441406 283.574219 C 256.507812 283.71875 256.542969 283.871094 256.546875 284.03125 C 256.550781 284.191406 256.523438 284.347656 256.46875 284.496094 C 256.410156 284.644531 256.328125 284.777344 256.21875 284.894531 C 256.109375 285.011719 255.980469 285.101562 255.835938 285.167969 C 255.691406 285.230469 255.535156 285.265625 255.375 285.273438 L 242.507812 285.621094 C 247.027344 287.277344 251.875 290.109375 258.082031 294.925781 C 274.222656 307.476562 279.058594 306.859375 282.921875 303.503906 C 274.566406 295.84375 264.398438 283.597656 255.488281 272.074219 C 249.304688 278.289062 240.460938 281.707031 231.167969 283.457031 C 231.503906 283.476562 231.84375 283.492188 232.175781 283.515625 Z M 232.175781 283.515625 " fill-opacity="1" fill-rule="nonzero"/><path fill="#a04202" d="M 153.710938 168.628906 C 148.851562 144.492188 162.621094 113.886719 162.621094 113.886719 C 162.378906 114 157.875 116.015625 150.914062 116.785156 C 150.867188 117.042969 150.742188 117.265625 150.546875 117.445312 C 150.347656 117.628906 150.152344 117.816406 149.953125 118.015625 L 149.769531 118.203125 C 149.628906 118.34375 149.496094 118.488281 149.355469 118.636719 L 149.152344 118.855469 L 148.722656 119.335938 L 148.5625 119.519531 C 148.367188 119.75 148.175781 119.984375 147.980469 120.230469 L 147.894531 120.339844 C 147.730469 120.550781 147.5625 120.761719 147.410156 120.984375 C 147.347656 121.0625 147.292969 121.144531 147.234375 121.226562 L 146.816406 121.792969 L 146.644531 122.046875 L 146.160156 122.734375 L 146.058594 122.890625 C 145.867188 123.179688 145.675781 123.480469 145.488281 123.78125 C 145.457031 123.835938 145.421875 123.890625 145.390625 123.941406 C 145.238281 124.195312 145.078125 124.449219 144.910156 124.710938 C 144.855469 124.792969 144.808594 124.882812 144.753906 124.96875 C 144.617188 125.210938 144.476562 125.457031 144.335938 125.710938 L 144.199219 125.949219 C 143.832031 126.617188 143.464844 127.308594 143.105469 128.019531 L 143.023438 128.191406 C 142.875 128.488281 142.726562 128.796875 142.574219 129.109375 L 142.460938 129.347656 C 142.308594 129.667969 142.164062 129.984375 142.015625 130.3125 L 141.941406 130.472656 C 141.59375 131.253906 141.246094 132.058594 140.910156 132.886719 L 140.851562 133.027344 C 140.703125 133.394531 140.554688 133.761719 140.40625 134.132812 C 140.40625 134.191406 140.363281 134.25 140.339844 134.3125 C 139.84375 135.597656 139.359375 136.914062 138.890625 138.261719 C 138.875 138.289062 138.863281 138.316406 138.855469 138.347656 C 138.710938 138.78125 138.570312 139.21875 138.425781 139.660156 L 138.425781 139.738281 C 137.976562 141.140625 137.550781 142.589844 137.152344 144.082031 L 137.152344 144.121094 C 136.613281 146.105469 136.121094 148.144531 135.699219 150.226562 C 135.242188 152.3125 134.847656 154.429688 134.527344 156.578125 C 140.160156 162.453125 146.671875 166.632812 153.710938 168.628906 Z M 153.710938 168.628906 " fill-opacity="1" fill-rule="nonzero"/><path fill="#d1d3d4" d="M 226.949219 206.65625 C 214.304688 214.605469 204.242188 208.289062 200.039062 204.644531 C 199.554688 207.796875 198.105469 214.210938 194.347656 219.816406 C 197.886719 222.386719 201.769531 224.230469 205.996094 225.347656 C 215.851562 227.953125 225.804688 226.101562 235.542969 219.84375 C 231.921875 215.941406 229.058594 211.546875 226.949219 206.65625 Z M 226.949219 206.65625 " fill-opacity="1" fill-rule="nonzero"/><path fill="#d1d3d4" d="M 197.875 202.519531 L 196.570312 209.011719 C 197.195312 206.886719 197.628906 204.722656 197.875 202.519531 Z M 197.875 202.519531 " fill-opacity="1" fill-rule="nonzero"/><path fill="#d1d3d4" d="M 244.195312 223.695312 C 246.074219 224.753906 248.066406 225.515625 250.167969 225.984375 C 246.582031 223.089844 244.152344 219.300781 243.289062 215.132812 C 243.289062 215.046875 243.253906 214.953125 243.234375 214.867188 C 238.914062 213.550781 234.820312 211.722656 230.960938 209.378906 C 232.925781 212.996094 235.359375 216.261719 238.265625 219.179688 C 240.019531 220.914062 241.964844 222.402344 244.101562 223.640625 Z M 244.195312 223.695312 " fill-opacity="1" fill-rule="nonzero"/><path fill="#d1d3d4" d="M 275.277344 217.835938 C 277.351562 216.1875 279.335938 214.4375 281.230469 212.585938 C 283.457031 210.398438 285.398438 207.984375 287.058594 205.339844 C 288.722656 202.699219 290.054688 199.902344 291.0625 196.949219 C 292.054688 194.066406 292.789062 191.121094 293.265625 188.109375 C 286.933594 200.261719 279.816406 207.640625 272.660156 211.847656 C 273.167969 214.261719 273.453125 216.703125 273.511719 219.167969 C 274.101562 218.738281 274.6875 218.292969 275.277344 217.835938 Z M 275.277344 217.835938 " fill-opacity="1" fill-rule="nonzero"/><path fill="#a04202" d="M 124.101562 109.046875 C 124.535156 109.28125 124.96875 109.527344 125.410156 109.730469 C 125.605469 109.828125 125.792969 109.9375 125.988281 110.03125 C 127.910156 110.980469 129.890625 111.785156 131.929688 112.445312 L 131.980469 112.445312 C 132.625 112.65625 133.28125 112.855469 133.953125 113.039062 L 134.195312 113.097656 C 134.792969 113.253906 135.398438 113.410156 136.003906 113.542969 L 136.359375 113.613281 C 136.929688 113.738281 137.503906 113.855469 138.082031 113.949219 L 138.167969 113.949219 C 140.089844 114.277344 142.023438 114.480469 143.96875 114.558594 C 154.195312 114.953125 161.515625 111.660156 161.585938 111.660156 C 161.585938 111.660156 133.984375 114.238281 124.335938 100.898438 C 114.847656 87.757812 106.789062 51.867188 95.703125 61.402344 C 93.945312 69.90625 97.167969 82.429688 107.953125 95.332031 C 109.71875 97.445312 111.605469 99.445312 113.617188 101.328125 L 114.070312 101.738281 C 114.417969 102.050781 114.765625 102.371094 115.113281 102.671875 L 115.816406 103.273438 C 116.164062 103.5625 116.507812 103.855469 116.859375 104.136719 C 117.105469 104.335938 117.34375 104.523438 117.597656 104.714844 C 117.941406 104.980469 118.285156 105.246094 118.628906 105.503906 C 118.894531 105.699219 119.164062 105.882812 119.429688 106.070312 C 119.695312 106.261719 120.089844 106.554688 120.429688 106.777344 C 120.765625 107 121.019531 107.160156 121.3125 107.351562 C 121.609375 107.542969 121.941406 107.757812 122.28125 107.949219 C 122.617188 108.144531 122.964844 108.355469 123.308594 108.554688 C 123.652344 108.75 123.824219 108.890625 124.101562 109.046875 Z M 124.101562 109.046875 " fill-opacity="1" fill-rule="nonzero"/><path fill="#a04202" d="M 160.738281 232.289062 C 160.675781 230.535156 160.710938 228.78125 160.839844 227.027344 C 159.457031 226.5 158.046875 225.90625 156.605469 225.242188 C 145.628906 220.171875 137.882812 210.421875 133.898438 196.761719 C 133.039062 197.050781 131.753906 197.46875 130.097656 197.972656 C 130.820312 203.28125 135.28125 224.453125 160.757812 232.246094 Z M 160.738281 232.289062 " fill-opacity="1" fill-rule="nonzero"/><path fill="#d1d3d4" d="M 192.902344 228.660156 C 191.558594 227.703125 190.289062 226.65625 189.097656 225.515625 C 188.363281 226.089844 187.59375 226.609375 186.792969 227.082031 C 185.027344 228.089844 183.164062 228.84375 181.195312 229.347656 C 179.226562 229.851562 177.226562 230.085938 175.195312 230.050781 C 171.078125 229.972656 167.074219 229.257812 163.1875 227.894531 C 163.128906 229.089844 163.089844 230.929688 163.1875 233.207031 C 168.828125 234.933594 182.699219 237.9375 192.902344 228.660156 Z M 192.902344 228.660156 " fill-opacity="1" fill-rule="nonzero"/><path fill="#d1d3d4" d="M 268.214844 230.429688 C 266.792969 230.921875 265.332031 231.160156 263.828125 231.144531 C 260.632812 231.082031 257.613281 230.335938 254.761719 228.894531 L 254.65625 228.894531 C 250.742188 228.890625 247.0625 227.960938 243.617188 226.109375 C 242.355469 226.949219 241.121094 227.722656 239.890625 228.4375 C 240.929688 229.113281 242.003906 229.71875 243.117188 230.257812 C 244.230469 230.796875 245.371094 231.265625 246.546875 231.65625 C 247.71875 232.050781 248.910156 232.371094 250.125 232.613281 C 251.335938 232.855469 252.558594 233.019531 253.792969 233.105469 C 255.027344 233.191406 256.261719 233.199219 257.496094 233.132812 C 258.734375 233.0625 259.957031 232.914062 261.175781 232.6875 C 262.390625 232.460938 263.589844 232.160156 264.765625 231.78125 C 265.945312 231.40625 267.09375 230.953125 268.214844 230.429688 Z M 268.214844 230.429688 " fill-opacity="1" fill-rule="nonzero"/><path fill="#d1d3d4" d="M 275.691406 220.5625 C 274.925781 221.144531 274.164062 221.695312 273.402344 222.203125 C 273.0625 225.679688 271.953125 228.160156 270.214844 229.445312 C 272.941406 227.949219 275.464844 226.164062 277.785156 224.085938 C 276.886719 222.558594 276.171875 221.363281 275.691406 220.5625 Z M 275.691406 220.5625 " fill-opacity="1" fill-rule="nonzero"/><path fill="#d1d3d4" d="M 268.214844 230.429688 C 266.792969 230.921875 265.332031 231.160156 263.828125 231.144531 C 260.632812 231.082031 257.613281 230.335938 254.761719 228.894531 L 254.65625 228.894531 C 250.742188 228.890625 247.0625 227.960938 243.617188 226.109375 C 242.355469 226.949219 241.121094 227.722656 239.890625 228.4375 C 240.929688 229.113281 242.003906 229.71875 243.117188 230.257812 C 244.230469 230.796875 245.371094 231.265625 246.546875 231.65625 C 247.71875 232.050781 248.910156 232.371094 250.125 232.613281 C 251.335938 232.855469 252.558594 233.019531 253.792969 233.105469 C 255.027344 233.191406 256.261719 233.199219 257.496094 233.132812 C 258.734375 233.0625 259.957031 232.914062 261.175781 232.6875 C 262.390625 232.460938 263.589844 232.160156 264.765625 231.78125 C 265.945312 231.40625 267.09375 230.953125 268.214844 230.429688 Z M 268.214844 230.429688 " fill-opacity="1" fill-rule="nonzero"/><path fill="#a04202" d="M 262.554688 231.074219 C 262.332031 231.074219 262.105469 231.035156 261.878906 231.003906 C 261.652344 230.976562 261.5625 230.972656 261.398438 230.945312 L 260.710938 230.839844 L 260.09375 230.71875 L 259.839844 230.664062 C 259.078125 230.496094 258.328125 230.285156 257.589844 230.035156 C 257.515625 231.105469 257.421875 232.140625 257.3125 233.140625 C 261.117188 232.933594 264.746094 232.023438 268.199219 230.410156 C 267.523438 230.65625 266.832031 230.832031 266.121094 230.941406 L 266.070312 230.941406 C 265.753906 230.992188 265.4375 231.027344 265.101562 231.054688 L 264.871094 231.054688 C 264.519531 231.078125 264.164062 231.097656 263.808594 231.097656 C 263.449219 231.097656 263.179688 231.097656 262.839844 231.0625 Z M 262.554688 231.074219 " fill-opacity="1" fill-rule="nonzero"/><path fill="#a04202" d="M 275.691406 220.5625 C 274.925781 221.144531 274.164062 221.695312 273.402344 222.203125 C 273.0625 225.679688 271.953125 228.160156 270.214844 229.445312 C 272.941406 227.949219 275.464844 226.164062 277.785156 224.085938 C 276.886719 222.558594 276.171875 221.363281 275.691406 220.5625 Z M 275.691406 220.5625 " fill-opacity="1" fill-rule="nonzero"/><path fill="#c6221e" d="M 231.542969 179.46875 C 231.28125 179.628906 231.027344 179.796875 230.777344 179.953125 L 230.539062 180.117188 C 230.367188 180.242188 230.191406 180.363281 230.023438 180.492188 L 229.75 180.691406 C 229.585938 180.816406 229.417969 180.945312 229.269531 181.082031 L 229.035156 181.265625 L 228.359375 181.835938 L 228.066406 182.101562 L 227.703125 182.433594 C 227.585938 182.539062 227.472656 182.644531 227.359375 182.757812 L 227.074219 183.03125 L 226.707031 183.398438 L 226.539062 183.574219 C 226.054688 184.054688 225.597656 184.578125 225.15625 185.09375 L 225.089844 185.171875 C 222.316406 188.5 220.03125 192.136719 218.222656 196.074219 C 222.691406 195.863281 227.039062 195.027344 231.269531 193.570312 C 231.269531 193.332031 231.335938 193.113281 231.464844 192.914062 C 231.597656 192.714844 231.769531 192.566406 231.988281 192.46875 C 233.183594 191.898438 234.417969 191.78125 235.699219 192.121094 C 240.90625 193.570312 243.292969 203.179688 245.660156 214.636719 C 246.683594 219.578125 250.292969 223.9375 255.570312 226.597656 C 260.402344 229.011719 265.488281 229.425781 268.582031 227.605469 C 269.203125 227.195312 269.664062 226.652344 269.972656 225.976562 C 242.691406 226.507812 250.996094 194.792969 240.570312 190.769531 C 230.144531 186.75 232.871094 178.703125 232.871094 178.703125 C 232.433594 178.9375 231.988281 179.195312 231.542969 179.46875 Z M 231.542969 179.46875 " fill-opacity="1" fill-rule="nonzero"/><path fill="#c6221e" d="M 271.039062 221.472656 C 271.023438 221.59375 270.996094 221.714844 270.960938 221.832031 C 270.652344 222.949219 269.289062 226.203125 263.96875 225.503906 C 257.570312 224.65625 263.226562 227.6875 263.226562 227.6875 L 270.648438 226.492188 L 271.9375 223.867188 Z M 271.039062 221.472656 " fill-opacity="1" fill-rule="nonzero"/><path fill="#c6221e" d="M 247.289062 186.054688 C 247.289062 186.054688 260.585938 188.28125 266.421875 216.109375 C 266.421875 216.109375 261.683594 193.800781 247.289062 186.054688 Z M 247.289062 186.054688 " fill-opacity="1" fill-rule="nonzero"/><path fill="#a04202" d="M 315.875 209.464844 C 316.628906 208.171875 316.730469 206.429688 316.355469 204.378906 C 315.816406 205.585938 313.839844 207.582031 306.730469 204.644531 C 299.480469 201.640625 297.3125 186.246094 296.480469 178.875 C 296.441406 185.191406 295.441406 191.351562 293.476562 197.355469 C 295.6875 204.261719 299.328125 212.042969 307.703125 212.230469 C 311.984375 212.328125 314.734375 211.402344 315.875 209.464844 Z M 315.875 209.464844 " fill-opacity="1" fill-rule="nonzero"/><path fill="#ef9354" d="M 212.734375 93.617188 C 212.734375 92.925781 212.691406 92.238281 212.660156 91.546875 C 203.25 91.925781 193.910156 92.933594 184.636719 94.574219 C 193.976562 93.453125 203.34375 93.136719 212.734375 93.617188 Z M 212.734375 93.617188 " fill-opacity="1" fill-rule="nonzero"/><path fill="#ef9354" d="M 284.921875 113.128906 C 274.773438 101.808594 258.707031 94.820312 237.195312 92.371094 C 232.566406 91.847656 227.703125 91.546875 222.675781 91.460938 C 222.527344 92.425781 222.398438 93.390625 222.277344 94.355469 C 251.652344 97.457031 289.15625 109.734375 299.972656 150.835938 C 298.171875 137.90625 294.960938 124.324219 284.921875 113.128906 Z M 284.921875 113.128906 " fill-opacity="1" fill-rule="nonzero"/><path fill="#d1d3d4" d="M 310.386719 303.480469 C 308.824219 299.425781 306.621094 295.753906 303.78125 292.464844 C 298.679688 293.878906 292.902344 292.683594 286.941406 289.886719 C 285.699219 294.761719 286.496094 300.539062 289.464844 305.769531 C 292.433594 307.929688 294.296875 308.664062 295.441406 308.804688 C 299.214844 309.339844 302.625 308.964844 305.394531 307.730469 C 303.601562 303.433594 297.910156 297.238281 297.847656 297.171875 C 297.742188 297.046875 297.660156 296.90625 297.605469 296.753906 C 297.550781 296.597656 297.527344 296.4375 297.535156 296.273438 C 297.542969 296.109375 297.578125 295.953125 297.644531 295.804688 C 297.710938 295.652344 297.800781 295.519531 297.917969 295.40625 C 298.035156 295.296875 298.167969 295.214844 298.320312 295.160156 C 298.46875 295.105469 298.625 295.078125 298.785156 295.085938 C 298.945312 295.09375 299.097656 295.128906 299.246094 295.195312 C 299.390625 295.261719 299.515625 295.355469 299.625 295.472656 C 299.882812 295.757812 305.425781 301.804688 307.527344 306.515625 C 308.675781 305.691406 309.632812 304.679688 310.386719 303.480469 Z M 310.386719 303.480469 " fill-opacity="1" fill-rule="nonzero"/><path fill="#a04202" d="M 146.878906 243.140625 C 141.566406 236.617188 132.054688 231.207031 111.753906 233.449219 C 80.023438 236.9375 59.511719 224.425781 59.511719 224.425781 C 62.058594 227.800781 66.648438 230.984375 72.832031 233.484375 C 81.933594 237.199219 92.71875 237.3125 103.152344 237.425781 C 109.308594 237.492188 115.230469 237.558594 120.738281 238.3125 C 121.917969 238.417969 136.136719 239.53125 146.878906 243.140625 Z M 146.878906 243.140625 " fill-opacity="1" fill-rule="nonzero"/><path fill="#a04202" d="M 149.300781 246.613281 C 149.300781 246.613281 149.273438 246.613281 149.261719 246.613281 C 144.914062 244.78125 139.410156 243.46875 134.367188 242.5625 C 140.125 245.835938 144.144531 250.914062 146.566406 257.96875 C 146.867188 258.847656 147.136719 259.710938 147.398438 260.566406 C 151.585938 258.660156 154.066406 256.464844 152.957031 254.035156 C 151.882812 251.492188 150.664062 249.015625 149.300781 246.613281 Z M 149.300781 246.613281 " fill-opacity="1" fill-rule="nonzero"/><path fill="#d1d3d4" d="M 60.148438 225.210938 C 60.253906 225.339844 60.367188 225.464844 60.484375 225.589844 L 60.703125 225.832031 C 60.808594 225.941406 60.914062 226.054688 61.023438 226.164062 C 61.109375 226.25 61.191406 226.335938 61.285156 226.417969 C 61.375 226.5 61.492188 226.621094 61.597656 226.722656 L 61.894531 227 L 62.199219 227.269531 C 62.65625 227.671875 63.136719 228.066406 63.648438 228.457031 L 63.820312 228.585938 L 64.351562 228.972656 L 64.53125 229.101562 L 65.109375 229.5 L 65.261719 229.59375 L 65.914062 230.015625 L 65.941406 230.015625 C 67.273438 230.847656 68.644531 231.597656 70.0625 232.265625 C 72.335938 232.144531 74.558594 231.746094 76.730469 231.074219 C 65.777344 228.25 59.511719 224.425781 59.511719 224.425781 C 59.660156 224.625 59.816406 224.816406 59.996094 225.007812 Z M 60.148438 225.210938 " fill-opacity="1" fill-rule="nonzero"/><path fill="#a04202" d="M 149.300781 246.613281 C 149.300781 246.613281 149.273438 246.613281 149.261719 246.613281 C 144.914062 244.78125 139.410156 243.46875 134.367188 242.5625 C 140.125 245.835938 144.144531 250.914062 146.566406 257.96875 C 146.867188 258.847656 147.136719 259.710938 147.398438 260.566406 C 151.585938 258.660156 154.066406 256.464844 152.957031 254.035156 C 151.882812 251.492188 150.664062 249.015625 149.300781 246.613281 Z M 149.300781 246.613281 " fill-opacity="1" fill-rule="nonzero"/><path fill="#c6221e" d="M 214.539062 228.871094 C 211.394531 228.871094 208.304688 228.464844 205.265625 227.65625 C 200.773438 226.464844 196.652344 224.496094 192.902344 221.757812 C 192.292969 222.515625 191.636719 223.230469 190.9375 223.910156 C 190.9375 223.910156 211.226562 239.523438 241.296875 224.746094 C 239.878906 223.796875 238.542969 222.742188 237.292969 221.582031 C 228.820312 227.121094 221.007812 228.871094 214.539062 228.871094 Z M 214.539062 228.871094 " fill-opacity="1" fill-rule="nonzero"/><path fill="#ffffff" d="M 218.925781 243.976562 C 218.925781 244.417969 218.902344 244.839844 218.855469 245.246094 C 218.8125 245.652344 218.746094 246.011719 218.664062 246.324219 C 218.582031 246.636719 218.484375 246.875 218.375 247.042969 C 218.265625 247.210938 218.152344 247.296875 218.035156 247.296875 C 217.917969 247.296875 217.804688 247.210938 217.695312 247.042969 C 217.585938 246.875 217.492188 246.636719 217.40625 246.324219 C 217.324219 246.011719 217.257812 245.652344 217.214844 245.246094 C 217.167969 244.839844 217.148438 244.417969 217.148438 243.976562 C 217.148438 243.535156 217.167969 243.113281 217.214844 242.703125 C 217.257812 242.296875 217.324219 241.9375 217.40625 241.628906 C 217.492188 241.316406 217.585938 241.074219 217.695312 240.90625 C 217.804688 240.738281 217.917969 240.65625 218.035156 240.65625 C 218.152344 240.65625 218.265625 240.738281 218.375 240.90625 C 218.484375 241.074219 218.582031 241.316406 218.664062 241.628906 C 218.746094 241.9375 218.8125 242.296875 218.855469 242.703125 C 218.902344 243.113281 218.925781 243.535156 218.925781 243.976562 Z M 218.925781 243.976562 " fill-opacity="1" fill-rule="nonzero"/><path fill="#3f1900" d="M 257.339844 138.796875 C 257.339844 139.832031 257.257812 140.855469 257.097656 141.871094 C 256.941406 142.882812 256.703125 143.871094 256.390625 144.824219 C 256.078125 145.78125 255.695312 146.6875 255.242188 147.550781 C 254.789062 148.410156 254.273438 149.207031 253.699219 149.9375 C 253.121094 150.667969 252.492188 151.320312 251.8125 151.894531 C 251.136719 152.472656 250.417969 152.957031 249.664062 153.351562 C 248.910156 153.75 248.132812 154.046875 247.332031 154.25 C 246.53125 154.449219 245.722656 154.550781 244.90625 154.550781 C 244.089844 154.550781 243.28125 154.449219 242.480469 154.25 C 241.683594 154.046875 240.90625 153.75 240.148438 153.351562 C 239.394531 152.957031 238.679688 152.472656 238 151.894531 C 237.324219 151.320312 236.695312 150.667969 236.117188 149.9375 C 235.539062 149.207031 235.023438 148.410156 234.570312 147.550781 C 234.117188 146.6875 233.734375 145.78125 233.421875 144.824219 C 233.109375 143.871094 232.875 142.882812 232.714844 141.871094 C 232.554688 140.855469 232.476562 139.832031 232.476562 138.796875 C 232.476562 137.761719 232.554688 136.738281 232.714844 135.722656 C 232.875 134.707031 233.109375 133.722656 233.421875 132.765625 C 233.734375 131.808594 234.117188 130.902344 234.570312 130.042969 C 235.023438 129.183594 235.539062 128.386719 236.117188 127.65625 C 236.695312 126.921875 237.324219 126.269531 238 125.695312 C 238.679688 125.121094 239.394531 124.636719 240.148438 124.238281 C 240.90625 123.84375 241.683594 123.542969 242.480469 123.34375 C 243.28125 123.140625 244.089844 123.039062 244.90625 123.039062 C 245.722656 123.039062 246.53125 123.140625 247.332031 123.34375 C 248.132812 123.542969 248.910156 123.84375 249.664062 124.238281 C 250.417969 124.636719 251.136719 125.121094 251.8125 125.695312 C 252.492188 126.269531 253.121094 126.921875 253.699219 127.65625 C 254.273438 128.386719 254.789062 129.183594 255.242188 130.042969 C 255.695312 130.902344 256.078125 131.808594 256.390625 132.765625 C 256.703125 133.722656 256.941406 134.707031 257.097656 135.722656 C 257.257812 136.738281 257.339844 137.761719 257.339844 138.796875 Z M 257.339844 138.796875 " fill-opacity="1" fill-rule="nonzero"/><path fill="#3f1900" d="M 200.289062 138.796875 C 200.289062 139.832031 200.210938 140.855469 200.050781 141.871094 C 199.890625 142.882812 199.65625 143.871094 199.34375 144.824219 C 199.03125 145.78125 198.648438 146.6875 198.195312 147.550781 C 197.742188 148.410156 197.226562 149.207031 196.648438 149.9375 C 196.074219 150.667969 195.445312 151.320312 194.765625 151.894531 C 194.085938 152.472656 193.371094 152.957031 192.617188 153.351562 C 191.863281 153.75 191.085938 154.046875 190.285156 154.25 C 189.484375 154.449219 188.675781 154.550781 187.859375 154.550781 C 187.042969 154.550781 186.234375 154.449219 185.433594 154.25 C 184.632812 154.046875 183.855469 153.75 183.101562 153.351562 C 182.347656 152.957031 181.632812 152.472656 180.953125 151.894531 C 180.273438 151.320312 179.648438 150.667969 179.070312 149.9375 C 178.492188 149.207031 177.976562 148.410156 177.523438 147.550781 C 177.070312 146.6875 176.6875 145.78125 176.375 144.824219 C 176.0625 143.871094 175.828125 142.882812 175.667969 141.871094 C 175.507812 140.855469 175.429688 139.832031 175.429688 138.796875 C 175.429688 137.761719 175.507812 136.738281 175.667969 135.722656 C 175.828125 134.707031 176.0625 133.722656 176.375 132.765625 C 176.6875 131.808594 177.070312 130.902344 177.523438 130.042969 C 177.976562 129.183594 178.492188 128.386719 179.070312 127.65625 C 179.648438 126.921875 180.273438 126.269531 180.953125 125.695312 C 181.632812 125.121094 182.347656 124.636719 183.101562 124.238281 C 183.855469 123.84375 184.632812 123.542969 185.433594 123.34375 C 186.234375 123.140625 187.042969 123.039062 187.859375 123.039062 C 188.675781 123.039062 189.484375 123.140625 190.285156 123.34375 C 191.085938 123.542969 191.863281 123.84375 192.617188 124.238281 C 193.371094 124.636719 194.085938 125.121094 194.765625 125.695312 C 195.445312 126.269531 196.074219 126.921875 196.648438 127.65625 C 197.226562 128.386719 197.742188 129.183594 198.195312 130.042969 C 198.648438 130.902344 199.03125 131.808594 199.34375 132.765625 C 199.65625 133.722656 199.890625 134.707031 200.050781 135.722656 C 200.210938 136.738281 200.289062 137.761719 200.289062 138.796875 Z M 200.289062 138.796875 " fill-opacity="1" fill-rule="nonzero"/><g clip-path="url(#id1)"><path fill="#3f1900" d="M 308.855469 182.800781 C 305.535156 177.234375 304.578125 168.953125 303.46875 159.359375 C 301.738281 144.449219 299.601562 125.886719 286.71875 111.542969 C 276.15625 99.769531 259.585938 92.511719 237.46875 89.984375 C 220.015625 87.980469 199.25 89.125 179.007812 93.191406 C 152.054688 98.613281 140.613281 83.109375 129.554688 68.117188 C 125.207031 62.199219 121.0625 56.601562 116.132812 52.667969 C 109.644531 47.460938 102.605469 47.300781 97.722656 52.257812 C 93.828125 56.226562 92.152344 62.796875 93.128906 70.277344 C 93.90625 76.246094 96.792969 85.773438 106.089844 96.875 C 119.457031 112.875 134.113281 116.667969 144.019531 117.015625 C 145.242188 117.0625 146.4375 117.054688 147.550781 117.015625 C 136.488281 128.925781 127.609375 160.425781 131.816406 187.457031 C 132.195312 189.886719 132.667969 192.21875 133.238281 194.449219 C 128.183594 196.15625 105.382812 203.394531 80.707031 203.753906 C 66.292969 203.96875 56.445312 208.867188 54.988281 216.589844 C 53.644531 223.710938 59.976562 230.871094 71.898438 235.734375 C 81.425781 239.597656 92.445312 239.738281 103.105469 239.851562 C 121.007812 240.046875 137.917969 240.234375 144.261719 258.734375 C 151.320312 279.324219 145.925781 293.0625 141.980469 303.09375 C 140.183594 307.675781 138.628906 311.628906 138.769531 315.109375 C 138.96875 320.007812 142.347656 324.28125 147.601562 326.324219 C 149.714844 327.128906 151.898438 327.523438 154.160156 327.515625 C 161.027344 327.515625 168.472656 323.90625 175.0625 317.15625 C 178.925781 313.183594 182.394531 309.269531 185.445312 305.8125 C 195.679688 294.226562 203.078125 285.824219 216.363281 285.824219 C 218.320312 285.824219 220.140625 285.824219 221.851562 285.785156 C 235.746094 285.632812 242.085938 285.566406 256.59375 296.828125 C 271.441406 308.355469 278.523438 310.523438 284.722656 305.113281 C 289.070312 308.863281 292.476562 310.875 295.113281 311.253906 C 296.3125 311.425781 297.515625 311.511719 298.726562 311.519531 C 301.832031 311.578125 304.757812 310.890625 307.507812 309.453125 C 309.78125 308.222656 311.550781 306.484375 312.820312 304.234375 C 315.425781 299.644531 316.925781 290.976562 309.304688 275.753906 C 298.054688 253.277344 280.863281 224.480469 277.601562 219.054688 C 279.363281 217.605469 281.148438 216.035156 282.914062 214.3125 C 286.867188 210.433594 289.929688 205.949219 292.09375 200.855469 C 294.660156 207.703125 298.898438 214.449219 307.613281 214.644531 L 308.289062 214.644531 C 313.21875 214.644531 316.382812 213.34375 317.953125 210.671875 C 321.402344 204.792969 315.613281 194.121094 308.855469 182.800781 Z M 258.082031 294.925781 C 251.875 290.101562 247.027344 287.277344 242.507812 285.621094 L 255.375 285.273438 C 255.535156 285.265625 255.691406 285.230469 255.835938 285.167969 C 255.980469 285.101562 256.109375 285.011719 256.21875 284.894531 C 256.328125 284.777344 256.410156 284.644531 256.46875 284.496094 C 256.523438 284.347656 256.550781 284.191406 256.546875 284.03125 C 256.542969 283.871094 256.507812 283.71875 256.441406 283.574219 C 256.378906 283.429688 256.285156 283.300781 256.171875 283.191406 C 256.054688 283.078125 255.921875 282.996094 255.773438 282.9375 C 255.625 282.882812 255.46875 282.855469 255.308594 282.859375 L 232.449219 283.476562 C 232.355469 283.480469 232.265625 283.492188 232.175781 283.515625 C 229.046875 283.296875 225.707031 283.332031 221.832031 283.375 C 220.128906 283.375 218.316406 283.414062 216.367188 283.414062 C 214.417969 283.410156 212.484375 283.59375 210.570312 283.964844 C 202.628906 284.335938 194.71875 283.972656 186.839844 282.875 C 186.683594 282.847656 186.523438 282.851562 186.367188 282.890625 C 186.210938 282.925781 186.070312 282.992188 185.9375 283.085938 C 185.808594 283.179688 185.703125 283.292969 185.617188 283.429688 C 185.53125 283.566406 185.476562 283.710938 185.453125 283.871094 C 185.425781 284.027344 185.429688 284.183594 185.46875 284.339844 C 185.503906 284.496094 185.570312 284.640625 185.664062 284.769531 C 185.757812 284.902344 185.871094 285.007812 186.007812 285.09375 C 186.144531 285.175781 186.289062 285.230469 186.449219 285.257812 C 192.019531 286.042969 197.617188 286.457031 203.242188 286.492188 C 196.078125 290.132812 190.320312 296.660156 183.648438 304.222656 C 180.46875 307.824219 177.183594 311.546875 173.347656 315.476562 C 165.277344 323.734375 155.984375 326.949219 148.480469 324.074219 C 144.132812 322.40625 141.355469 318.941406 141.199219 315.019531 C 141.078125 312.039062 142.472656 308.488281 144.242188 303.984375 C 148.320312 293.605469 153.90625 279.386719 146.5625 257.957031 C 144.144531 250.898438 140.121094 245.820312 134.363281 242.546875 C 139.40625 243.453125 144.925781 244.765625 149.257812 246.597656 C 149.410156 246.664062 149.574219 246.695312 149.742188 246.695312 C 150.027344 246.695312 150.285156 246.605469 150.507812 246.425781 C 150.734375 246.246094 150.875 246.015625 150.933594 245.734375 C 150.992188 245.453125 150.953125 245.183594 150.820312 244.929688 C 150.6875 244.671875 150.488281 244.488281 150.222656 244.375 C 139.359375 239.761719 122.042969 238.429688 120.738281 238.3125 C 115.234375 237.558594 109.308594 237.492188 103.152344 237.425781 C 92.71875 237.3125 81.933594 237.199219 72.832031 233.484375 C 66.648438 230.984375 62.058594 227.800781 59.511719 224.425781 C 62.222656 223.398438 68.472656 221.253906 73.71875 221.253906 L 73.894531 221.253906 C 74.054688 221.25 74.207031 221.21875 74.351562 221.160156 C 74.496094 221.097656 74.628906 221.011719 74.738281 220.898438 C 74.851562 220.785156 74.941406 220.660156 75.003906 220.511719 C 75.066406 220.367188 75.097656 220.214844 75.101562 220.058594 C 75.101562 219.898438 75.074219 219.742188 75.015625 219.59375 C 74.953125 219.445312 74.867188 219.316406 74.753906 219.199219 C 74.644531 219.085938 74.511719 219 74.367188 218.9375 C 74.21875 218.875 74.0625 218.839844 73.902344 218.839844 C 67.855469 218.800781 60.816406 221.320312 58.191406 222.339844 C 57.722656 221.410156 57.417969 220.433594 57.28125 219.402344 C 59.589844 217.953125 68.800781 212.8125 79.808594 214.640625 C 79.96875 214.667969 80.125 214.664062 80.28125 214.628906 C 80.441406 214.59375 80.585938 214.53125 80.71875 214.4375 C 80.847656 214.34375 80.957031 214.230469 81.042969 214.09375 C 81.132812 213.957031 81.1875 213.808594 81.214844 213.652344 C 81.242188 213.492188 81.238281 213.335938 81.203125 213.175781 C 81.167969 213.019531 81.105469 212.875 81.011719 212.742188 C 80.917969 212.613281 80.804688 212.503906 80.667969 212.417969 C 80.53125 212.332031 80.382812 212.273438 80.222656 212.246094 C 69.957031 210.542969 61.347656 214.332031 57.492188 216.464844 C 59.125 210.363281 68.121094 206.328125 80.742188 206.160156 C 105.503906 205.792969 128.414062 198.605469 133.882812 196.769531 C 137.890625 210.414062 145.632812 220.164062 156.589844 225.25 C 158.03125 225.917969 159.441406 226.511719 160.824219 227.035156 C 160.496094 231.347656 159.953125 249.070312 171.535156 262.445312 C 179.804688 271.996094 192.351562 277.0625 208.824219 277.496094 C 209.347656 277.496094 209.867188 277.496094 210.386719 277.496094 C 224.738281 277.496094 237.289062 272.234375 247.734375 261.847656 C 257.984375 275.65625 271.996094 293.488281 282.90625 303.496094 C 279.058594 306.859375 274.222656 307.464844 258.082031 294.925781 Z M 311.78125 300.523438 C 308.046875 292.261719 303.085938 288.300781 302.839844 288.121094 C 302.714844 288.023438 302.574219 287.957031 302.421875 287.914062 C 302.269531 287.875 302.113281 287.863281 301.957031 287.886719 C 301.796875 287.90625 301.652344 287.953125 301.511719 288.03125 C 301.375 288.109375 301.257812 288.210938 301.160156 288.335938 C 301.0625 288.460938 300.992188 288.597656 300.949219 288.75 C 300.902344 288.902344 300.890625 289.058594 300.910156 289.214844 C 300.925781 289.371094 300.972656 289.519531 301.046875 289.660156 C 301.125 289.796875 301.222656 289.917969 301.347656 290.019531 C 301.40625 290.0625 306.894531 294.472656 310.417969 303.535156 C 309.652344 304.742188 308.6875 305.761719 307.519531 306.589844 C 305.433594 301.878906 299.878906 295.828125 299.617188 295.550781 C 299.511719 295.425781 299.382812 295.324219 299.238281 295.253906 C 299.089844 295.179688 298.933594 295.136719 298.769531 295.128906 C 298.605469 295.117188 298.445312 295.140625 298.292969 295.195312 C 298.136719 295.25 298 295.335938 297.878906 295.445312 C 297.757812 295.558594 297.664062 295.6875 297.597656 295.839844 C 297.527344 295.988281 297.492188 296.144531 297.492188 296.308594 C 297.488281 296.472656 297.515625 296.632812 297.578125 296.785156 C 297.640625 296.9375 297.726562 297.070312 297.84375 297.1875 C 297.90625 297.253906 303.640625 303.496094 305.410156 307.804688 C 302.640625 309.050781 299.222656 309.433594 295.4375 308.890625 C 293.863281 308.664062 290.863281 307.394531 285.480469 302.617188 C 274.300781 292.675781 259.390625 273.582031 248.820312 259.308594 C 242.671875 250.988281 238.449219 244.886719 238.40625 244.824219 C 238.3125 244.695312 238.199219 244.585938 238.066406 244.5 C 237.929688 244.410156 237.785156 244.355469 237.625 244.324219 C 237.46875 244.296875 237.3125 244.300781 237.15625 244.332031 C 237 244.367188 236.855469 244.429688 236.722656 244.519531 C 236.589844 244.613281 236.480469 244.726562 236.394531 244.859375 C 236.308594 244.996094 236.25 245.140625 236.222656 245.296875 C 236.195312 245.457031 236.195312 245.613281 236.230469 245.769531 C 236.265625 245.925781 236.328125 246.070312 236.417969 246.199219 C 236.457031 246.257812 240.425781 251.992188 246.269531 259.910156 C 235.882812 270.367188 223.308594 275.476562 208.878906 275.097656 C 193.121094 274.679688 181.171875 269.90625 173.367188 260.894531 C 163.03125 248.933594 162.964844 232.828125 163.210938 227.878906 C 167.097656 229.238281 171.101562 229.953125 175.222656 230.03125 C 177.253906 230.066406 179.25 229.832031 181.21875 229.328125 C 183.1875 228.824219 185.054688 228.070312 186.816406 227.0625 C 187.621094 226.589844 188.386719 226.070312 189.121094 225.496094 C 193.261719 229.398438 198.042969 232.222656 203.460938 233.96875 C 206.257812 234.875 209.121094 235.441406 212.050781 235.671875 C 210.4375 237.832031 209.410156 241.355469 209.410156 245.488281 C 209.410156 252.371094 212.214844 257.554688 215.925781 257.554688 C 219.636719 257.554688 222.433594 252.367188 222.433594 245.488281 C 222.433594 241.261719 221.378906 237.679688 219.703125 235.539062 C 226.605469 234.75 234.679688 232.085938 243.601562 226.109375 C 247.050781 227.960938 250.730469 228.890625 254.640625 228.894531 L 254.75 228.894531 C 257.597656 230.335938 260.621094 231.082031 263.8125 231.144531 C 265.9375 231.203125 267.933594 230.71875 269.796875 229.695312 C 271.792969 228.523438 273.027344 225.9375 273.386719 222.203125 C 274.144531 221.695312 274.90625 221.144531 275.679688 220.5625 C 279.285156 226.578125 296.089844 254.769531 307.125 276.820312 C 311.964844 286.464844 313.558594 294.734375 311.78125 300.523438 Z M 192.902344 221.757812 C 196.652344 224.496094 200.773438 226.464844 205.265625 227.65625 C 208.300781 228.464844 211.390625 228.871094 214.539062 228.871094 C 221.003906 228.871094 228.820312 227.121094 237.292969 221.582031 C 238.542969 222.742188 239.878906 223.796875 241.296875 224.746094 C 232.679688 230.320312 224.277344 233.222656 216.175781 233.433594 C 216.089844 233.433594 216.007812 233.433594 215.917969 233.433594 C 215.789062 233.425781 215.65625 233.425781 215.523438 233.433594 C 211.691406 233.464844 207.949219 232.890625 204.300781 231.714844 C 199.265625 230.09375 194.804688 227.488281 190.917969 223.902344 C 191.625 223.230469 192.285156 222.511719 192.902344 221.757812 Z M 220.039062 245.488281 C 220.039062 251.015625 217.882812 255.140625 215.949219 255.140625 C 214.015625 255.140625 211.851562 251.007812 211.851562 245.488281 C 211.851562 239.964844 214.015625 235.832031 215.949219 235.832031 C 217.882812 235.832031 220.039062 239.960938 220.039062 245.488281 Z M 235.714844 192.132812 C 234.433594 191.792969 233.195312 191.90625 232.003906 192.480469 C 231.785156 192.574219 231.609375 192.722656 231.480469 192.921875 C 231.351562 193.121094 231.285156 193.339844 231.28125 193.578125 C 227.054688 195.039062 222.707031 195.871094 218.238281 196.085938 C 220.042969 192.144531 222.332031 188.511719 225.105469 185.179688 L 225.171875 185.101562 C 225.609375 184.585938 226.074219 184.078125 226.554688 183.582031 L 226.722656 183.410156 L 227.089844 183.042969 L 227.375 182.765625 C 227.484375 182.65625 227.601562 182.550781 227.71875 182.445312 L 228.078125 182.109375 L 228.375 181.84375 L 229.03125 181.289062 L 229.265625 181.105469 C 229.429688 180.972656 229.597656 180.839844 229.746094 180.714844 L 230.015625 180.515625 C 230.1875 180.386719 230.359375 180.265625 230.535156 180.140625 L 230.769531 179.976562 C 231.023438 179.804688 231.277344 179.632812 231.539062 179.492188 C 238.664062 175.042969 245.59375 175.601562 252.125 181.160156 C 252.652344 181.601562 253.171875 182.066406 253.675781 182.539062 C 265.5 193.527344 271.789062 210.960938 271.039062 221.472656 L 271.039062 221.496094 C 270.824219 224.613281 269.921875 226.855469 268.585938 227.640625 C 265.492188 229.460938 260.371094 229.089844 255.574219 226.632812 C 250.300781 223.949219 246.691406 219.589844 245.648438 214.660156 C 243.296875 203.191406 240.910156 193.589844 235.703125 192.132812 Z M 217.09375 192.890625 C 217.027344 193.015625 216.96875 193.136719 216.90625 193.257812 C 216.84375 193.378906 216.835938 193.386719 216.808594 193.453125 C 216.730469 193.605469 216.660156 193.753906 216.585938 193.898438 L 216.539062 194 C 216.460938 194.160156 216.386719 194.308594 216.320312 194.457031 C 216.285156 194.519531 216.257812 194.582031 216.230469 194.648438 L 216.109375 194.90625 L 216.015625 195.109375 C 215.984375 195.183594 215.953125 195.25 215.917969 195.316406 C 215.886719 195.386719 215.863281 195.449219 215.835938 195.511719 C 215.8125 195.574219 215.785156 195.632812 215.753906 195.6875 C 215.6875 195.847656 215.621094 196.003906 215.566406 196.132812 C 199.964844 195.964844 187.492188 188.097656 182.449219 184.363281 C 200.28125 182.613281 211.917969 171.609375 215.324219 167.992188 C 219 172.425781 223.394531 175.96875 228.515625 178.609375 L 228.421875 178.6875 C 228.1875 178.863281 227.941406 179.039062 227.726562 179.222656 L 227.484375 179.421875 C 227.308594 179.566406 227.132812 179.714844 226.960938 179.867188 L 226.699219 180.085938 L 226.1875 180.570312 L 225.964844 180.773438 C 225.726562 180.996094 225.480469 181.21875 225.269531 181.445312 C 225.035156 181.671875 224.8125 181.902344 224.585938 182.140625 L 224.382812 182.355469 C 224.230469 182.519531 224.078125 182.691406 223.929688 182.839844 L 223.703125 183.089844 L 223.277344 183.574219 C 223.207031 183.648438 223.136719 183.730469 223.070312 183.8125 C 222.902344 184.011719 222.742188 184.210938 222.585938 184.40625 L 222.480469 184.539062 C 222.289062 184.78125 222.09375 185.019531 221.910156 185.265625 L 221.75 185.476562 C 221.617188 185.648438 221.484375 185.828125 221.355469 186 L 221.167969 186.261719 L 220.820312 186.746094 L 220.640625 187.003906 L 220.273438 187.539062 C 220.230469 187.605469 220.1875 187.660156 220.148438 187.722656 L 219.664062 188.433594 L 219.558594 188.609375 L 219.21875 189.140625 L 219.070312 189.386719 L 218.789062 189.84375 L 218.644531 190.085938 C 218.550781 190.246094 218.460938 190.398438 218.375 190.566406 C 218.335938 190.636719 218.292969 190.703125 218.257812 190.765625 C 218.132812 190.984375 218.011719 191.195312 217.894531 191.40625 L 217.832031 191.519531 C 217.742188 191.691406 217.644531 191.859375 217.550781 192.03125 L 217.441406 192.246094 C 217.367188 192.378906 217.300781 192.507812 217.238281 192.632812 Z M 315.882812 209.464844 C 314.753906 211.398438 311.996094 212.328125 307.699219 212.230469 C 299.320312 212.042969 295.683594 204.261719 293.472656 197.355469 C 299.347656 180.132812 295.621094 160.070312 291.4375 146.21875 C 291.390625 146.066406 291.316406 145.925781 291.214844 145.804688 C 291.113281 145.679688 290.992188 145.578125 290.851562 145.503906 C 290.710938 145.425781 290.558594 145.382812 290.398438 145.367188 C 290.238281 145.351562 290.082031 145.363281 289.929688 145.410156 C 289.777344 145.457031 289.636719 145.53125 289.511719 145.632812 C 289.390625 145.734375 289.289062 145.855469 289.214844 146 C 289.136719 146.140625 289.09375 146.289062 289.078125 146.449219 C 289.0625 146.609375 289.078125 146.765625 289.125 146.921875 C 293.234375 160.527344 296.910156 180.25 291.054688 196.949219 C 289.019531 202.9375 285.746094 208.148438 281.234375 212.585938 C 279.339844 214.4375 277.355469 216.1875 275.28125 217.835938 C 274.691406 218.300781 274.105469 218.746094 273.519531 219.179688 C 273.339844 208.699219 267.816406 193.414062 257.046875 182.429688 C 264.550781 181.015625 272.410156 177.867188 280.460938 173.050781 C 280.597656 172.96875 280.714844 172.863281 280.808594 172.734375 C 280.90625 172.605469 280.972656 172.464844 281.011719 172.308594 C 281.050781 172.152344 281.058594 171.996094 281.035156 171.835938 C 281.011719 171.679688 280.957031 171.53125 280.875 171.394531 C 280.792969 171.257812 280.6875 171.140625 280.558594 171.042969 C 280.429688 170.949219 280.289062 170.882812 280.132812 170.84375 C 279.976562 170.804688 279.820312 170.796875 279.664062 170.820312 C 279.503906 170.84375 279.355469 170.898438 279.21875 170.980469 C 270.796875 176.019531 262.617188 179.183594 254.894531 180.347656 C 254.503906 179.992188 254.105469 179.640625 253.699219 179.296875 C 246.554688 173.21875 238.660156 172.460938 230.839844 177.082031 C 225.519531 174.53125 220.972656 170.992188 217.199219 166.460938 C 217.671875 166.257812 218.101562 165.992188 218.488281 165.65625 C 220.238281 164.140625 221.75 162.425781 223.03125 160.5 C 224.308594 158.574219 225.308594 156.515625 226.027344 154.320312 C 226.144531 153.957031 226.21875 153.582031 226.25 153.203125 C 226.28125 152.820312 226.265625 152.441406 226.203125 152.0625 C 226.144531 151.683594 226.039062 151.320312 225.890625 150.964844 C 225.746094 150.613281 225.558594 150.28125 225.332031 149.972656 C 225.105469 149.664062 224.847656 149.386719 224.554688 149.136719 C 224.261719 148.890625 223.945312 148.679688 223.601562 148.507812 C 223.257812 148.335938 222.902344 148.207031 222.527344 148.121094 C 222.15625 148.035156 221.777344 147.992188 221.394531 147.996094 L 209.410156 147.996094 C 209.035156 147.996094 208.664062 148.039062 208.300781 148.125 C 207.933594 148.214844 207.585938 148.339844 207.25 148.507812 C 206.910156 148.675781 206.597656 148.878906 206.308594 149.117188 C 206.019531 149.355469 205.761719 149.625 205.535156 149.925781 C 205.308594 150.222656 205.121094 150.546875 204.96875 150.886719 C 204.816406 151.230469 204.703125 151.585938 204.636719 151.957031 C 204.566406 152.324219 204.539062 152.695312 204.554688 153.070312 C 204.570312 153.445312 204.628906 153.8125 204.730469 154.175781 C 205.355469 156.4375 206.300781 158.554688 207.574219 160.523438 C 208.84375 162.496094 210.382812 164.234375 212.183594 165.738281 C 212.5625 166.046875 212.976562 166.296875 213.425781 166.484375 C 209.875 170.175781 197.507812 181.519531 179.292969 182.167969 L 179.207031 182.167969 C 169.765625 182.488281 160.054688 179.902344 150.339844 174.488281 C 150.199219 174.410156 150.050781 174.363281 149.890625 174.34375 C 149.730469 174.324219 149.574219 174.335938 149.421875 174.378906 C 149.265625 174.425781 149.125 174.496094 149 174.59375 C 148.875 174.695312 148.773438 174.8125 148.695312 174.953125 C 148.617188 175.09375 148.566406 175.242188 148.550781 175.402344 C 148.53125 175.5625 148.542969 175.71875 148.585938 175.871094 C 148.632812 176.027344 148.703125 176.167969 148.800781 176.292969 C 148.902344 176.417969 149.019531 176.519531 149.160156 176.597656 C 158.707031 181.90625 168.277344 184.605469 177.640625 184.605469 C 178.039062 184.605469 178.429688 184.605469 178.824219 184.605469 C 181.335938 186.714844 196.367188 198.574219 216.082031 198.574219 L 216.398438 198.574219 C 223.007812 198.527344 229.355469 197.210938 235.4375 194.617188 C 239.433594 196.378906 241.855469 208.085938 243.316406 215.164062 C 244.183594 219.328125 246.613281 223.109375 250.199219 226.015625 C 248.082031 225.539062 246.082031 224.765625 244.195312 223.695312 L 244.105469 223.648438 C 241.96875 222.410156 240.023438 220.925781 238.269531 219.1875 C 232.234375 213.28125 229.21875 205.84375 229.1875 205.773438 C 229.132812 205.617188 229.050781 205.480469 228.9375 205.359375 C 228.828125 205.234375 228.695312 205.140625 228.546875 205.074219 C 228.398438 205.003906 228.238281 204.96875 228.074219 204.964844 C 227.910156 204.960938 227.75 204.988281 227.597656 205.050781 C 227.445312 205.109375 227.3125 205.199219 227.195312 205.316406 C 227.078125 205.429688 226.988281 205.566406 226.925781 205.71875 C 226.863281 205.871094 226.835938 206.03125 226.839844 206.195312 C 226.839844 206.359375 226.878906 206.515625 226.945312 206.667969 C 229.054688 211.554688 231.917969 215.949219 235.539062 219.855469 C 225.78125 226.128906 215.847656 227.964844 205.992188 225.355469 C 201.761719 224.238281 197.878906 222.394531 194.34375 219.824219 C 199.445312 212.246094 200.234375 203.222656 200.28125 202.710938 C 200.292969 202.550781 200.277344 202.394531 200.226562 202.242188 C 200.175781 202.089844 200.101562 201.953125 199.996094 201.832031 C 199.890625 201.707031 199.769531 201.609375 199.625 201.539062 C 199.480469 201.464844 199.328125 201.421875 199.167969 201.410156 C 199.007812 201.394531 198.851562 201.414062 198.699219 201.464844 C 198.546875 201.511719 198.410156 201.589844 198.285156 201.695312 C 198.164062 201.796875 198.066406 201.921875 197.992188 202.066406 C 197.921875 202.207031 197.878906 202.359375 197.863281 202.519531 C 197.863281 202.679688 196.441406 218.632812 185.554688 224.984375 C 178.589844 229.050781 169.183594 228.398438 157.605469 223.054688 C 141.738281 215.722656 136.117188 199.453125 134.195312 187.09375 C 129.996094 160.128906 139.507812 127.503906 150.539062 117.433594 C 150.734375 117.253906 150.855469 117.035156 150.90625 116.773438 C 157.867188 116.019531 162.371094 114.003906 162.609375 113.878906 C 162.757812 113.8125 162.882812 113.71875 162.992188 113.601562 C 163.101562 113.484375 163.183594 113.351562 163.242188 113.199219 C 163.296875 113.050781 163.324219 112.894531 163.316406 112.734375 C 163.3125 112.574219 163.273438 112.421875 163.207031 112.277344 C 163.140625 112.132812 163.050781 112.003906 162.933594 111.894531 C 162.816406 111.785156 162.679688 111.703125 162.53125 111.648438 C 162.378906 111.59375 162.226562 111.566406 162.066406 111.574219 C 161.90625 111.578125 161.753906 111.613281 161.605469 111.679688 C 161.535156 111.714844 154.214844 114.988281 143.988281 114.578125 C 130.320312 114.074219 118.191406 107.59375 107.953125 95.332031 C 93.257812 77.75 92.601562 60.867188 99.4375 53.914062 C 103.359375 49.921875 109.171875 50.148438 114.613281 54.511719 C 119.292969 58.273438 123.332031 63.742188 127.605469 69.535156 C 137.074219 82.375 147.628906 96.6875 168.667969 96.6875 C 172.304688 96.660156 175.898438 96.277344 179.457031 95.535156 C 199.472656 91.511719 219.972656 90.382812 237.183594 92.351562 C 258.691406 94.820312 274.75 101.808594 284.90625 113.109375 C 297.277344 126.90625 299.273438 144.28125 301.066406 159.628906 C 302.210938 169.496094 303.195312 178.023438 306.777344 184.03125 C 312.632812 193.835938 318.648438 204.714844 315.875 209.464844 Z M 315.882812 209.464844 " fill-opacity="1" fill-rule="nonzero"/></g><path fill="#ffffff" d="M 246.179688 133.28125 C 246.179688 133.671875 246.148438 134.054688 246.089844 134.433594 C 246.027344 134.8125 245.941406 135.183594 245.824219 135.539062 C 245.707031 135.898438 245.5625 136.238281 245.394531 136.558594 C 245.222656 136.882812 245.03125 137.179688 244.816406 137.453125 C 244.597656 137.726562 244.363281 137.972656 244.109375 138.1875 C 243.855469 138.402344 243.589844 138.585938 243.304688 138.734375 C 243.023438 138.882812 242.734375 138.992188 242.433594 139.070312 C 242.132812 139.144531 241.832031 139.183594 241.527344 139.183594 C 241.21875 139.183594 240.917969 139.144531 240.617188 139.070312 C 240.316406 138.992188 240.027344 138.882812 239.746094 138.734375 C 239.460938 138.585938 239.195312 138.402344 238.941406 138.1875 C 238.6875 137.972656 238.453125 137.726562 238.234375 137.453125 C 238.019531 137.179688 237.828125 136.882812 237.65625 136.558594 C 237.488281 136.238281 237.34375 135.898438 237.226562 135.539062 C 237.109375 135.183594 237.023438 134.8125 236.960938 134.433594 C 236.902344 134.054688 236.871094 133.671875 236.871094 133.28125 C 236.871094 132.894531 236.902344 132.511719 236.960938 132.132812 C 237.023438 131.753906 237.109375 131.382812 237.226562 131.027344 C 237.34375 130.667969 237.488281 130.328125 237.65625 130.007812 C 237.828125 129.683594 238.019531 129.386719 238.234375 129.113281 C 238.453125 128.839844 238.6875 128.59375 238.941406 128.378906 C 239.195312 128.164062 239.460938 127.980469 239.746094 127.832031 C 240.027344 127.683594 240.316406 127.574219 240.617188 127.496094 C 240.917969 127.421875 241.21875 127.382812 241.527344 127.382812 C 241.832031 127.382812 242.132812 127.421875 242.433594 127.496094 C 242.734375 127.574219 243.023438 127.683594 243.304688 127.832031 C 243.589844 127.980469 243.855469 128.164062 244.109375 128.378906 C 244.363281 128.59375 244.597656 128.839844 244.816406 129.113281 C 245.03125 129.386719 245.222656 129.683594 245.394531 130.007812 C 245.5625 130.328125 245.707031 130.667969 245.824219 131.027344 C 245.941406 131.382812 246.027344 131.753906 246.089844 132.132812 C 246.148438 132.511719 246.179688 132.894531 246.179688 133.28125 Z M 246.179688 133.28125 " fill-opacity="1" fill-rule="nonzero"/><path fill="#ffffff" d="M 251.171875 134.671875 C 251.171875 135.007812 251.121094 135.332031 251.023438 135.644531 C 250.921875 135.953125 250.777344 136.226562 250.589844 136.464844 C 250.402344 136.703125 250.1875 136.886719 249.941406 137.015625 C 249.699219 137.144531 249.441406 137.207031 249.179688 137.207031 C 248.914062 137.207031 248.660156 137.144531 248.414062 137.015625 C 248.171875 136.886719 247.953125 136.703125 247.765625 136.464844 C 247.582031 136.226562 247.4375 135.953125 247.335938 135.644531 C 247.234375 135.332031 247.183594 135.007812 247.183594 134.671875 C 247.183594 134.335938 247.234375 134.015625 247.335938 133.703125 C 247.4375 133.394531 247.582031 133.117188 247.765625 132.882812 C 247.953125 132.644531 248.171875 132.460938 248.414062 132.332031 C 248.660156 132.203125 248.914062 132.140625 249.179688 132.140625 C 249.441406 132.140625 249.699219 132.203125 249.941406 132.332031 C 250.1875 132.460938 250.402344 132.644531 250.589844 132.882812 C 250.777344 133.117188 250.921875 133.394531 251.023438 133.703125 C 251.121094 134.015625 251.171875 134.335938 251.171875 134.671875 Z M 251.171875 134.671875 " fill-opacity="1" fill-rule="nonzero"/><path fill="#ffffff" d="M 222.371094 152.605469 C 222.371094 152.941406 222.320312 153.265625 222.21875 153.578125 C 222.117188 153.886719 221.972656 154.160156 221.785156 154.398438 C 221.597656 154.636719 221.382812 154.820312 221.136719 154.949219 C 220.894531 155.078125 220.640625 155.140625 220.375 155.140625 C 220.109375 155.140625 219.855469 155.078125 219.609375 154.949219 C 219.367188 154.820312 219.148438 154.636719 218.964844 154.398438 C 218.777344 154.160156 218.632812 153.886719 218.53125 153.578125 C 218.429688 153.265625 218.378906 152.941406 218.378906 152.605469 C 218.378906 152.269531 218.429688 151.945312 218.53125 151.636719 C 218.632812 151.324219 218.777344 151.050781 218.964844 150.8125 C 219.148438 150.578125 219.367188 150.394531 219.609375 150.265625 C 219.855469 150.136719 220.109375 150.070312 220.375 150.070312 C 220.640625 150.070312 220.894531 150.136719 221.136719 150.265625 C 221.382812 150.394531 221.597656 150.578125 221.785156 150.8125 C 221.972656 151.050781 222.117188 151.324219 222.21875 151.636719 C 222.320312 151.945312 222.371094 152.269531 222.371094 152.605469 Z M 222.371094 152.605469 " fill-opacity="1" fill-rule="nonzero"/><path fill="#ffffff" d="M 189.128906 133.28125 C 189.128906 133.671875 189.101562 134.054688 189.039062 134.433594 C 188.980469 134.8125 188.894531 135.183594 188.777344 135.539062 C 188.660156 135.898438 188.515625 136.238281 188.347656 136.558594 C 188.175781 136.882812 187.984375 137.179688 187.765625 137.453125 C 187.550781 137.726562 187.316406 137.972656 187.0625 138.1875 C 186.808594 138.402344 186.539062 138.585938 186.257812 138.734375 C 185.976562 138.882812 185.683594 138.992188 185.386719 139.070312 C 185.085938 139.144531 184.78125 139.183594 184.476562 139.183594 C 184.171875 139.183594 183.871094 139.144531 183.570312 139.070312 C 183.269531 138.992188 182.980469 138.882812 182.695312 138.734375 C 182.414062 138.585938 182.148438 138.402344 181.894531 138.1875 C 181.640625 137.972656 181.402344 137.726562 181.1875 137.453125 C 180.972656 137.179688 180.777344 136.882812 180.609375 136.558594 C 180.441406 136.238281 180.296875 135.898438 180.179688 135.539062 C 180.0625 135.183594 179.972656 134.8125 179.914062 134.433594 C 179.855469 134.054688 179.824219 133.671875 179.824219 133.28125 C 179.824219 132.894531 179.855469 132.511719 179.914062 132.132812 C 179.972656 131.753906 180.0625 131.382812 180.179688 131.027344 C 180.296875 130.667969 180.441406 130.328125 180.609375 130.007812 C 180.777344 129.683594 180.972656 129.386719 181.1875 129.113281 C 181.402344 128.839844 181.640625 128.59375 181.894531 128.378906 C 182.148438 128.164062 182.414062 127.980469 182.695312 127.832031 C 182.980469 127.683594 183.269531 127.574219 183.570312 127.496094 C 183.871094 127.421875 184.171875 127.382812 184.476562 127.382812 C 184.78125 127.382812 185.085938 127.421875 185.386719 127.496094 C 185.683594 127.574219 185.976562 127.683594 186.257812 127.832031 C 186.539062 127.980469 186.808594 128.164062 187.0625 128.378906 C 187.316406 128.59375 187.550781 128.839844 187.765625 129.113281 C 187.984375 129.386719 188.175781 129.683594 188.347656 130.007812 C 188.515625 130.328125 188.660156 130.667969 188.777344 131.027344 C 188.894531 131.382812 188.980469 131.753906 189.039062 132.132812 C 189.101562 132.511719 189.128906 132.894531 189.128906 133.28125 Z M 189.128906 133.28125 " fill-opacity="1" fill-rule="nonzero"/><path fill="#ffffff" d="M 194.125 134.671875 C 194.125 135.007812 194.074219 135.332031 193.972656 135.644531 C 193.871094 135.953125 193.726562 136.226562 193.542969 136.464844 C 193.355469 136.703125 193.136719 136.886719 192.894531 137.015625 C 192.648438 137.144531 192.394531 137.207031 192.128906 137.207031 C 191.867188 137.207031 191.609375 137.144531 191.367188 137.015625 C 191.121094 136.886719 190.90625 136.703125 190.71875 136.464844 C 190.53125 136.226562 190.386719 135.953125 190.285156 135.644531 C 190.1875 135.332031 190.136719 135.007812 190.136719 134.671875 C 190.136719 134.335938 190.1875 134.015625 190.285156 133.703125 C 190.386719 133.394531 190.53125 133.117188 190.71875 132.882812 C 190.90625 132.644531 191.121094 132.460938 191.367188 132.332031 C 191.609375 132.203125 191.867188 132.140625 192.128906 132.140625 C 192.394531 132.140625 192.648438 132.203125 192.894531 132.332031 C 193.136719 132.460938 193.355469 132.644531 193.542969 132.882812 C 193.726562 133.117188 193.871094 133.394531 193.972656 133.703125 C 194.074219 134.015625 194.125 134.335938 194.125 134.671875 Z M 194.125 134.671875 " fill-opacity="1" fill-rule="nonzero"/></svg>