<svg xmlns="http://www.w3.org/2000/svg" xmlns:xlink="http://www.w3.org/1999/xlink" width="500" zoomAndPan="magnify" viewBox="0 0 375 374.999991" height="500" preserveAspectRatio="xMidYMid meet" version="1.0"><defs><clipPath id="id1"><path d="M 31.390625 112.566406 L 343.390625 112.566406 L 343.390625 262.566406 L 31.390625 262.566406 Z M 31.390625 112.566406 " clip-rule="nonzero"/></clipPath></defs><rect x="-37.5" width="450" fill="#01253b" y="-37.499999" height="449.999989" fill-opacity="1"/><rect x="-37.5" width="450" fill="#ffffff" y="-37.499999" height="449.999989" fill-opacity="1"/><rect x="-37.5" width="450" fill="#01253b" y="-37.499999" height="449.999989" fill-opacity="1"/><g clip-path="url(#id1)"><path fill="#e9b546" d="M 267.019531 187.128906 C 267.898438 198.054688 260.875 217.523438 247.457031 217.773438 L 246.828125 214.761719 C 250.089844 213.753906 253.097656 212.75 255.355469 209.484375 C 256.988281 207.097656 258.117188 201.445312 258.742188 195.667969 C 259.371094 189.640625 259.621094 183.109375 259.117188 179.464844 C 263.007812 176.074219 279.433594 166.027344 283.949219 165.273438 C 273.414062 162.886719 261.25 170.671875 253.976562 177.832031 C 254.730469 180.972656 254.355469 184.742188 254.226562 188.382812 C 246.078125 190.894531 240.433594 188.007812 237.550781 185.996094 C 237.550781 176.449219 236.671875 149.320312 226.136719 150.074219 C 232.15625 155.222656 233.035156 179.84375 232.660156 187.378906 C 232.03125 198.304688 227.894531 212.5 226.390625 219.28125 C 225.636719 222.546875 226.640625 225.4375 229.648438 227.949219 C 234.539062 232.09375 242.441406 239.253906 244.195312 240.886719 C 250.089844 246.414062 255.859375 252.316406 259.496094 257.089844 L 253.097656 257.089844 C 245.449219 246.035156 223.378906 228.828125 212.34375 222.171875 C 218.992188 206.847656 211.84375 198.304688 203.441406 188.507812 C 194.789062 178.460938 188.894531 179.589844 183.878906 161.253906 C 183.625 161.878906 183.25 165.398438 183 168.539062 C 180.242188 161.503906 179.992188 153.339844 182.75 146.429688 C 148.011719 166.027344 104.121094 188.382812 65.246094 177.328125 C 92.710938 180.847656 119.546875 169.039062 141.367188 154.722656 C 152.527344 147.308594 161.179688 140.90625 169.207031 136.007812 C 175.976562 131.734375 181.996094 128.09375 188.140625 125.957031 C 197.796875 122.441406 207.703125 122.316406 219.867188 125.582031 C 232.15625 129.222656 241.1875 137.136719 247.082031 140.402344 C 257.238281 147.8125 273.289062 152.960938 284.324219 144.421875 C 288.714844 141.03125 300.375 131.359375 306.898438 130.855469 C 306.019531 128.34375 301.628906 120.683594 298.117188 120.558594 C 298.621094 122.566406 302.632812 129.851562 301.128906 129.726562 C 299.371094 126.835938 296.863281 121.9375 296.113281 117.164062 C 304.640625 118.296875 307.023438 124.574219 310.660156 130.226562 C 321.191406 134.375 327.210938 139.144531 325.832031 146.429688 L 336.867188 155.851562 L 332.226562 163.386719 C 329.34375 163.890625 324.578125 162.632812 323.699219 160.375 C 323.449219 159.621094 324.578125 157.609375 323.953125 156.355469 C 316.425781 162.632812 308.402344 159.621094 302.007812 151.078125 C 297.117188 165.648438 281.941406 179.714844 267.144531 187 Z M 311.914062 140.652344 C 311.664062 140.277344 313.542969 137.011719 319.9375 140.527344 C 322.320312 141.910156 321.445312 145.929688 317.679688 145.929688 C 316.679688 145.929688 314.296875 141.15625 311.914062 140.652344 Z M 296.988281 130.480469 C 295.109375 130.101562 283.320312 138.644531 281.816406 139.898438 C 272.914062 146.808594 258.242188 141.03125 250.339844 135.753906 C 244.824219 132.238281 233.914062 125.328125 221.246094 120.179688 C 206.074219 116.410156 195.539062 116.914062 184.628906 121.5625 C 178.863281 123.949219 172.96875 127.214844 166.195312 131.234375 C 158.546875 135.753906 149.140625 142.285156 137.855469 149.445312 C 99.859375 173.6875 66.625 181.976562 31.390625 156.480469 C 41.296875 188.132812 79.542969 189.261719 107.007812 184.238281 C 126.445312 180.722656 148.390625 172.054688 175.097656 156.730469 C 173.09375 178.335938 189.773438 184.238281 201.433594 196.171875 C 209.835938 206.972656 213.222656 212.121094 204.570312 224.054688 C 219.242188 231.84375 240.933594 248.546875 249.210938 262.363281 L 269.402344 262.363281 C 265.390625 255.078125 257.113281 246.035156 248.082031 237.367188 C 242.566406 231.96875 236.171875 227.320312 232.03125 221.667969 C 233.160156 216.644531 236.421875 205.589844 237.300781 193.40625 C 240.933594 194.914062 246.953125 196.171875 254.101562 194.414062 C 253.726562 197.425781 252.972656 204.335938 251.34375 206.722656 C 249.589844 209.359375 244.320312 210.488281 241.1875 211.496094 L 243.695312 221.792969 C 254.855469 222.046875 259.746094 218.152344 266.015625 208.730469 C 269.402344 203.328125 271.410156 195.417969 272.035156 190.140625 C 285.953125 183.863281 296.363281 171.675781 303.261719 159.871094 C 308.152344 164.015625 314.796875 165.898438 321.066406 164.015625 C 323.828125 167.660156 329.21875 168.914062 334.734375 169.039062 L 343.390625 155.347656 L 330.597656 143.542969 C 330.597656 143.417969 330.597656 143.292969 330.472656 142.914062 C 328.339844 135.125 319.9375 129.851562 314.296875 126.082031 C 306.773438 115.03125 303.511719 111.640625 290.972656 112.644531 C 291.472656 115.40625 293.480469 124.703125 297.117188 130.355469 Z M 296.988281 130.480469 " fill-opacity="1" fill-rule="nonzero"/></g></svg>