<svg xmlns="http://www.w3.org/2000/svg" xmlns:xlink="http://www.w3.org/1999/xlink" width="500" zoomAndPan="magnify" viewBox="0 0 375 374.999991" height="500" preserveAspectRatio="xMidYMid meet" version="1.0"><defs><clipPath id="id1"><path d="M 86.484375 49 L 288.234375 49 L 288.234375 326 L 86.484375 326 Z M 86.484375 49 " clip-rule="nonzero"/></clipPath></defs><rect x="-37.5" width="450" fill="#050f3a" y="-37.499999" height="449.999989" fill-opacity="1"/><rect x="-37.5" width="450" fill="#ffffff" y="-37.499999" height="449.999989" fill-opacity="1"/><rect x="-37.5" width="450" fill="#050f3a" y="-37.499999" height="449.999989" fill-opacity="1"/><path fill="#1a7beb" d="M 271.277344 236.246094 C 271.277344 235.402344 271.292969 234.539062 271.292969 233.675781 C 271.054688 234.445312 271.015625 235.292969 271.277344 236.246094 Z M 271.277344 236.246094 " fill-opacity="1" fill-rule="nonzero"/><g clip-path="url(#id1)"><path fill="#020d3a" d="M 178.171875 49.457031 C 194.421875 48.757812 210.847656 51.640625 225.957031 57.625 C 239.550781 63.058594 252.21875 71.113281 262.519531 81.53125 C 272.792969 91.796875 280.765625 104.445312 285.0625 118.335938 C 287.5625 126.527344 288.894531 135.183594 288.621094 143.75 C 288.316406 153.835938 286.0625 163.835938 281.917969 173.046875 C 279.246094 179.207031 275.519531 184.777344 271.089844 189.816406 C 268.070312 193.238281 264.847656 196.59375 261.265625 199.433594 C 260.121094 200.351562 258.910156 201.175781 257.753906 202.078125 C 264.019531 202.28125 269.867188 202.8125 275.402344 206.007812 C 277.335938 207.136719 278.183594 209.429688 278.496094 211.53125 C 278.816406 213.289062 277.457031 215.03125 276.53125 216.425781 C 271.9375 222.96875 264.652344 227.609375 256.527344 227.902344 C 255.585938 229.148438 254.550781 230.296875 253.472656 231.425781 C 257.617188 231.367188 261.492188 231.53125 264.964844 234.066406 C 267.777344 236.078125 268.675781 239.089844 269.425781 242.292969 C 270.382812 246.734375 269.347656 251.203125 267.210938 255.136719 C 265.796875 257.589844 263.441406 259.949219 260.550781 260.46875 C 258.597656 260.804688 256.648438 261.148438 254.667969 261.3125 C 255.953125 264.425781 256.992188 267.832031 257.171875 271.207031 C 257.296875 271.875 257.117188 273.035156 257.585938 273.546875 C 259.746094 275.285156 261.597656 277.3125 263.367188 279.4375 C 266.953125 283.644531 270.097656 288.183594 271.488281 293.601562 C 272.636719 297.210938 273.011719 300.988281 271.925781 304.664062 C 271.234375 306.777344 270.167969 308.929688 268.601562 310.539062 C 265.332031 313.9375 260.75 316.113281 256.019531 316.285156 C 255.882812 318.046875 255.53125 319.710938 254.492188 321.175781 C 253.355469 322.777344 251.742188 323.707031 249.953125 324.429688 C 246.433594 325.894531 242.425781 325.921875 238.691406 325.5 C 235.773438 325.25 232.917969 324.574219 230.214844 323.441406 C 226.277344 321.789062 222.785156 319.34375 220.699219 315.539062 C 218.992188 316.367188 217.269531 317.019531 215.34375 316.984375 C 213.019531 317.097656 210.972656 316.339844 208.902344 315.390625 C 203.691406 312.839844 199.46875 308.40625 197.15625 303.097656 C 193.8125 296.023438 193.546875 288.574219 194.191406 280.902344 C 194.421875 278.304688 195 275.777344 195.378906 273.207031 C 193.925781 279.1875 190.4375 284.34375 185.898438 288.449219 C 185.121094 289.085938 184.171875 289.480469 183.148438 289.417969 C 181.574219 289.398438 180.039062 288.382812 178.730469 287.585938 C 174.964844 285.242188 171.714844 282.015625 169.1875 278.394531 C 167.210938 275.566406 165.4375 272.6875 164.191406 269.464844 C 162.976562 271.347656 161.78125 273.222656 160.324219 274.933594 C 158.324219 277.402344 155.828125 279.484375 153.167969 281.214844 C 148.695312 283.890625 143.824219 285.777344 138.515625 285.40625 C 134.207031 285.136719 130.035156 283.625 126.710938 280.851562 C 125.84375 280.128906 125.179688 279.226562 124.96875 278.101562 C 124.722656 276.515625 124.488281 275.003906 124.855469 273.410156 C 125.585938 269.953125 126.957031 266.558594 128.625 263.449219 C 130.195312 260.527344 132.378906 258.078125 134.839844 255.878906 C 136.300781 254.605469 137.886719 253.703125 139.464844 252.601562 C 139.136719 252.355469 138.808594 252.105469 138.480469 251.855469 C 135.046875 253.152344 131.480469 253.671875 127.832031 253.851562 C 125.164062 254.058594 122.316406 252.988281 120.417969 251.121094 C 118.449219 249.253906 117.621094 246.273438 117.410156 243.648438 C 116.949219 238.566406 119.824219 233.34375 124.257812 230.851562 C 126.351562 229.667969 128.742188 229.566406 131.007812 230.304688 C 133.378906 231.09375 135.601562 231.972656 138.167969 232.1875 C 138.792969 231.894531 139.269531 231.246094 139.777344 230.789062 C 140.972656 229.5625 142.410156 228.75 143.898438 227.933594 C 142.710938 227.175781 141.566406 226.378906 140.582031 225.367188 C 138.402344 223.097656 136.351562 220.855469 134.71875 218.148438 C 133.503906 216.1875 132.441406 213.851562 132.324219 211.523438 C 132.339844 209.757812 134.03125 209.117188 135.308594 208.320312 C 138.234375 206.578125 141.074219 206.863281 144.300781 205.785156 C 144.050781 204.042969 143.871094 202.328125 144.121094 200.574219 C 144.613281 196.417969 145.824219 191.980469 148.53125 188.6875 C 150.363281 186.5 152.429688 184.566406 155.136719 183.53125 C 155.40625 182.542969 155.679688 181.558594 155.925781 180.570312 C 150.226562 181.863281 144.484375 184.824219 140.695312 189.34375 C 137.855469 192.664062 136.105469 196.914062 136.238281 201.316406 C 136.296875 203.054688 136.058594 204.722656 134.625 205.878906 C 133.265625 207.042969 131.363281 206.769531 129.710938 206.773438 C 127.835938 206.671875 126.402344 205.265625 124.964844 204.226562 C 114.230469 196.378906 104.996094 186.5625 98.238281 175.09375 C 91.394531 163.542969 87.273438 150.480469 86.625 137.054688 C 86.414062 130.902344 86.777344 124.773438 88.011719 118.738281 C 90.679688 105.015625 97.210938 92.246094 106.449219 81.769531 C 115.847656 71.050781 127.984375 62.835938 141.152344 57.421875 C 152.917969 52.597656 165.472656 50.003906 178.171875 49.457031 Z M 178.171875 49.457031 " fill-opacity="1" fill-rule="nonzero"/></g><path fill="#ffffff" d="M 179.21875 57.644531 C 182.671875 57.359375 186.039062 57.683594 189.484375 57.789062 C 213.972656 59.25 237.984375 69.160156 255.648438 86.261719 C 265.035156 95.445312 272.46875 106.507812 276.625 118.996094 C 275.082031 115.230469 273.101562 111.777344 271.132812 108.222656 C 266.621094 100.308594 260.6875 93.359375 253.851562 87.347656 C 237.597656 73.222656 216.253906 65.148438 194.808594 63.925781 C 184.320312 63.34375 173.832031 64.140625 163.640625 66.738281 C 162.5625 66.992188 161.589844 67.328125 160.472656 67.265625 C 155.089844 65.574219 149.441406 64.875 143.804688 65.175781 C 155.027344 60.554688 167.082031 57.992188 179.21875 57.644531 Z M 179.21875 57.644531 " fill-opacity="1" fill-rule="nonzero"/><path fill="#fd182d" d="M 194.808594 63.929688 C 216.253906 65.148438 237.597656 73.222656 253.851562 87.347656 C 260.6875 93.359375 266.621094 100.308594 271.132812 108.222656 C 273.101562 111.777344 275.082031 115.230469 276.625 118.996094 C 277.613281 121.503906 278.261719 124.105469 278.796875 126.738281 C 279.449219 132.378906 280.769531 138.019531 280.070312 143.824219 C 279.316406 141.390625 279.226562 138.890625 278.617188 136.425781 C 277.808594 133.160156 277.113281 129.953125 275.894531 126.804688 C 273.796875 121.132812 270.722656 115.992188 267.25 111.0625 C 265.410156 108.121094 263.363281 105.347656 261.101562 102.714844 C 260.328125 101.824219 259.445312 101.050781 258.5 100.347656 C 259.320312 102.757812 260.53125 105.007812 261.320312 107.433594 C 263.328125 113.554688 264.554688 119.890625 265.074219 126.308594 C 265.625 130.949219 265.527344 135.574219 265.460938 140.238281 C 265.355469 144.65625 264.933594 149.046875 263.914062 153.351562 C 262.355469 160.601562 260.027344 167.71875 256.617188 174.320312 C 254.730469 178.003906 252.753906 181.878906 250.074219 185.066406 C 250.78125 183.03125 251.769531 181.144531 252.636719 179.183594 C 255.410156 172.765625 257.097656 166.210938 258.636719 159.414062 C 259.761719 153.90625 260.515625 148.304688 261.019531 142.710938 C 261.3125 136.460938 261.25 130.136719 260.382812 123.933594 C 260.035156 121.074219 259.5 118.246094 258.632812 115.496094 C 258.371094 118.796875 258.515625 122.101562 258.3125 125.40625 C 258.144531 129.339844 257.777344 133.207031 257.183594 137.101562 C 256.53125 142.5 255.417969 147.8125 254.085938 153.078125 C 251.847656 162.125 248.613281 171.226562 243.925781 179.316406 C 241.828125 182.976562 239.484375 186.75 236.542969 189.792969 C 233.441406 188.535156 230.085938 187.449219 226.734375 187.222656 C 230.445312 189.191406 233.933594 191.640625 236.96875 194.542969 C 239.945312 197.0625 242.425781 200.238281 244.179688 203.710938 C 244.09375 204.171875 244.015625 204.628906 243.933594 205.089844 C 237.847656 205.894531 231.347656 203.648438 226.433594 200.125 C 224.40625 198.753906 222.832031 196.96875 221.011719 195.371094 C 221.292969 197.21875 221.816406 199.015625 222.683594 200.679688 C 223.625 202.597656 224.996094 203.960938 225.621094 206.046875 C 226.011719 207.339844 226.457031 208.613281 227.101562 209.804688 C 226.996094 210.070312 226.894531 210.339844 226.789062 210.601562 C 223.511719 210.714844 220.34375 210.496094 217.277344 209.25 C 213.53125 207.679688 209.992188 205.304688 207.355469 202.199219 C 205.804688 200.484375 204.761719 198.464844 203.300781 196.691406 C 203.585938 200.886719 205.535156 204.65625 207.820312 208.105469 C 208.695312 209.386719 208.917969 210.789062 209.308594 212.253906 C 209.609375 213.40625 210.175781 214.367188 210.792969 215.367188 C 210.882812 215.761719 210.960938 216.152344 211.035156 216.546875 C 208.699219 215.289062 206.835938 213.488281 205.128906 211.484375 C 202.460938 208.253906 200.375 204.492188 198.582031 200.71875 C 195.566406 194.460938 193.1875 187.390625 192.9375 180.410156 C 193.40625 178.546875 193.898438 176.699219 194.339844 174.832031 C 190.871094 180.382812 189.054688 187.097656 188.351562 193.554688 C 188.082031 196.449219 188.167969 199.386719 188.238281 202.292969 C 188.125 205.015625 189.054688 207.488281 189.261719 210.167969 C 187.230469 208.488281 185.859375 206.414062 184.457031 204.210938 C 181.824219 199.945312 179.769531 195.011719 179.207031 190.007812 C 178.882812 187.347656 179.242188 184.8125 179.558594 182.179688 C 182.527344 181.546875 185.179688 179.972656 186.601562 177.21875 C 187.886719 174.820312 187.6875 172.136719 187.535156 169.503906 C 187.445312 168.003906 186.742188 166.722656 186.460938 165.289062 C 186.722656 164.082031 187.636719 162.972656 188.199219 161.875 C 193.617188 151.941406 197.070312 140.941406 197.824219 129.632812 C 197.917969 126.109375 197.929688 122.566406 197.792969 119.042969 C 197.382812 114.359375 196.695312 109.605469 195.335938 105.09375 C 194.011719 100.804688 192.394531 96.5 190.199219 92.574219 C 185.941406 84.542969 179.542969 77.644531 171.9375 72.664062 C 168.296875 70.464844 164.59375 68.394531 160.476562 67.269531 C 161.589844 67.328125 162.5625 66.992188 163.640625 66.738281 C 173.832031 64.140625 184.320312 63.34375 194.808594 63.929688 Z M 194.808594 63.929688 " fill-opacity="1" fill-rule="nonzero"/><path fill="#ffffff" d="M 139.394531 68.847656 C 144.117188 68.246094 148.898438 68.40625 153.5625 69.359375 C 152.773438 69.835938 151.988281 70.304688 151.132812 70.644531 C 142.335938 74.015625 134.105469 78.867188 126.78125 84.769531 C 123.929688 87.230469 121.085938 89.617188 118.652344 92.511719 C 108.332031 103.414062 101.542969 117.539062 99.707031 132.4375 C 99.382812 135.617188 98.863281 139.007812 99.246094 142.160156 C 99.472656 144.039062 99.375 145.933594 99.585938 147.8125 C 100.3125 153.355469 101.324219 158.828125 102.925781 164.191406 C 103.230469 165.140625 103.285156 165.984375 103.183594 166.96875 C 95.078125 151.71875 92.582031 133.457031 96.882812 116.683594 C 99.976562 104.445312 106.5 93.273438 115.339844 84.273438 C 120.632812 78.863281 126.753906 74.214844 133.296875 70.402344 C 135.03125 69.320312 137.394531 69.136719 139.394531 68.847656 Z M 139.394531 68.847656 " fill-opacity="1" fill-rule="nonzero"/><path fill="#ffe226" d="M 153.5625 69.359375 C 158.066406 70.246094 162.316406 72.144531 166.289062 74.410156 C 168.691406 75.941406 171.039062 77.648438 173.113281 79.605469 C 177.144531 83.59375 180.585938 88.167969 183.15625 93.230469 C 185.691406 98.222656 187.53125 103.59375 188.578125 109.097656 C 189.921875 115.535156 190.394531 122.246094 189.738281 128.800781 C 188.949219 138.816406 186.148438 148.636719 181.304688 157.460938 C 180.542969 158.871094 179.667969 160.210938 178.929688 161.632812 C 175.445312 161.179688 172.019531 161.070312 168.546875 161.703125 C 156.394531 163.832031 145.003906 170.285156 137.171875 179.824219 C 133.210938 184.511719 129.484375 190.28125 128.320312 196.378906 C 127.746094 195.984375 127.183594 195.582031 126.632812 195.15625 C 117.390625 187.8125 109.554688 178.761719 103.867188 168.414062 C 103.621094 167.9375 103.398438 167.460938 103.183594 166.96875 C 103.285156 165.984375 103.230469 165.140625 102.925781 164.191406 C 101.324219 158.828125 100.3125 153.355469 99.585938 147.8125 C 99.375 145.929688 99.472656 144.039062 99.246094 142.15625 C 98.863281 139.003906 99.382812 135.617188 99.703125 132.433594 C 101.542969 117.539062 108.332031 103.414062 118.652344 92.511719 C 121.082031 89.617188 123.929688 87.230469 126.78125 84.769531 C 134.105469 78.867188 142.335938 74.015625 151.132812 70.644531 C 151.988281 70.304688 152.773438 69.835938 153.5625 69.359375 Z M 153.5625 69.359375 " fill-opacity="1" fill-rule="nonzero"/><path fill="#020d3a" d="M 225.972656 81.53125 C 228.417969 81.859375 230.78125 82.917969 232.765625 84.359375 C 235.59375 86.539062 237.933594 89.25 239.515625 92.464844 C 241.691406 96.792969 243.035156 101.570312 243.5625 106.382812 C 244.109375 111.027344 244.011719 115.824219 243.246094 120.4375 C 242.230469 126.179688 240.449219 131.628906 236.992188 136.398438 C 234.664062 139.808594 230.898438 143.175781 226.695312 143.851562 C 224.289062 144.039062 221.648438 144.179688 219.386719 143.257812 C 215.179688 141.714844 211.777344 138.164062 209.515625 134.390625 C 206.675781 129.617188 205.53125 123.816406 204.980469 118.351562 C 204.792969 114.09375 204.757812 109.648438 205.507812 105.445312 C 205.945312 102.707031 206.796875 100.21875 207.578125 97.554688 C 208.402344 94.726562 209.675781 92.011719 211.195312 89.492188 C 212.496094 87.371094 214.347656 85.457031 216.371094 84.023438 C 219.136719 82.195312 222.648438 81.121094 225.972656 81.53125 Z M 225.972656 81.53125 " fill-opacity="1" fill-rule="nonzero"/><path fill="#ffffff" d="M 220.121094 88.523438 C 221.425781 88.015625 222.808594 87.964844 224.152344 88.355469 C 226.527344 89.019531 228.449219 90.566406 229.890625 92.535156 C 233.488281 97.238281 235.074219 103.09375 235.609375 108.910156 C 236.054688 115.421875 235.238281 122.0625 232.453125 128.019531 C 231.089844 130.851562 229.152344 133.726562 226.394531 135.367188 C 224.566406 136.472656 222.640625 137.253906 220.464844 136.820312 C 217.824219 136.265625 215.773438 134.253906 214.230469 132.152344 C 210.195312 126.628906 208.453125 119.796875 208.234375 113.039062 C 208.234375 108.84375 208.808594 104.628906 209.949219 100.589844 C 211.628906 95.589844 215.089844 90.59375 220.121094 88.523438 Z M 220.121094 88.523438 " fill-opacity="1" fill-rule="nonzero"/><path fill="#ef7228" d="M 177.132812 98.074219 C 178.726562 98.050781 179.695312 99.238281 180.664062 100.316406 C 182.371094 102.390625 183.757812 104.671875 184.304688 107.332031 C 180.210938 107.097656 176.25 106.839844 172.15625 107.371094 C 167.914062 107.9375 163.6875 108.941406 159.703125 110.507812 C 151.355469 113.804688 143.734375 119.015625 137.359375 125.292969 C 131.898438 130.566406 127.328125 136.816406 123.722656 143.476562 C 118.28125 153.402344 115.097656 164.511719 115.351562 175.882812 C 114.445312 172.414062 114.167969 168.863281 114.207031 165.289062 C 114.085938 160.269531 114.71875 155.21875 115.691406 150.300781 C 117.402344 142.78125 120.804688 135.515625 124.632812 128.84375 C 127.078125 124.527344 130.300781 120.992188 133.820312 117.53125 C 136.277344 115.117188 138.777344 112.800781 141.621094 110.835938 C 145.292969 108.292969 149.085938 105.847656 153.148438 103.976562 C 155.097656 103.074219 157.0625 102.203125 159.039062 101.367188 C 162.003906 100.101562 165.308594 99.40625 168.464844 98.78125 C 171.308594 98.300781 174.25 98.023438 177.132812 98.074219 Z M 177.132812 98.074219 " fill-opacity="1" fill-rule="nonzero"/><path fill="#020d3a" d="M 220.136719 98.441406 C 221.808594 97.71875 223.683594 98.007812 225.175781 98.992188 C 227.25 100.375 228.488281 102.546875 229.207031 104.878906 C 230.585938 109.601562 230.585938 114.691406 229.125 119.394531 C 228.246094 121.921875 227.28125 124.257812 225.238281 126.085938 C 223.84375 127.480469 221.964844 128.257812 219.984375 127.859375 C 217.988281 127.40625 216.261719 125.789062 215.289062 124.039062 C 214.039062 121.726562 213.402344 119.195312 213.214844 116.585938 C 212.835938 112.515625 213.308594 108.25 214.863281 104.449219 C 215.890625 102.078125 217.648438 99.441406 220.136719 98.441406 Z M 220.136719 98.441406 " fill-opacity="1" fill-rule="nonzero"/><path fill="#a00513" d="M 258.5 100.347656 C 259.445312 101.046875 260.328125 101.824219 261.101562 102.714844 C 263.359375 105.347656 265.410156 108.121094 267.246094 111.0625 C 270.722656 115.992188 273.796875 121.132812 275.894531 126.804688 C 277.113281 129.953125 277.808594 133.160156 278.617188 136.425781 C 279.226562 138.890625 279.316406 141.390625 280.070312 143.824219 C 280.769531 138.019531 279.449219 132.378906 278.796875 126.738281 C 279.898438 131.011719 280.410156 135.457031 280.390625 139.871094 C 280.777344 148.988281 279.207031 158.292969 275.628906 166.707031 C 274.277344 170.753906 272.222656 174.582031 270.074219 178.261719 C 268.113281 181.144531 266.46875 184.199219 264.355469 186.976562 C 262.808594 189.195312 260.941406 191.105469 259.171875 193.128906 C 257.40625 195.144531 255.414062 196.875 253.574219 198.820312 C 252.742188 199.710938 251.832031 200.472656 250.835938 201.175781 C 249.277344 199.085938 247.742188 197.042969 245.710938 195.367188 C 242.957031 193.089844 239.800781 191.253906 236.539062 189.789062 C 239.480469 186.746094 241.828125 182.972656 243.925781 179.316406 C 248.613281 171.226562 251.847656 162.125 254.085938 153.078125 C 255.417969 147.808594 256.53125 142.5 257.183594 137.097656 C 257.777344 133.203125 258.144531 129.339844 258.3125 125.40625 C 258.515625 122.097656 258.371094 118.792969 258.632812 115.492188 C 259.5 118.242188 260.035156 121.070312 260.382812 123.929688 C 261.25 130.136719 261.3125 136.460938 261.015625 142.707031 C 260.515625 148.304688 259.761719 153.90625 258.636719 159.414062 C 257.097656 166.207031 255.410156 172.765625 252.636719 179.183594 C 251.769531 181.144531 250.777344 183.03125 250.074219 185.0625 C 252.753906 181.878906 254.730469 178.003906 256.617188 174.316406 C 260.027344 167.714844 262.355469 160.597656 263.914062 153.351562 C 264.933594 149.042969 265.355469 144.65625 265.460938 140.238281 C 265.527344 135.574219 265.625 130.949219 265.074219 126.304688 C 264.554688 119.886719 263.328125 113.554688 261.320312 107.433594 C 260.53125 105.007812 259.320312 102.757812 258.5 100.347656 Z M 258.5 100.347656 " fill-opacity="1" fill-rule="nonzero"/><path fill="#ffffff" d="M 221.152344 101.859375 C 223.132812 101.421875 224.46875 103.191406 224.917969 104.890625 C 225.566406 107.054688 224.703125 110.171875 222.257812 110.753906 C 220.34375 111.113281 219.117188 109.246094 218.742188 107.628906 C 218.273438 105.566406 218.917969 102.625 221.152344 101.859375 Z M 221.152344 101.859375 " fill-opacity="1" fill-rule="nonzero"/><path fill="#1a7beb" d="M 216.730469 110.859375 C 217.617188 111.617188 218.503906 112.519531 219.523438 113.101562 C 220.625 113.738281 222.035156 113.773438 223.242188 113.464844 C 224.648438 113.085938 225.75 111.917969 226.800781 110.96875 C 226.804688 112.683594 226.84375 114.371094 226.53125 116.066406 C 226.078125 118.777344 225.363281 121.507812 223.355469 123.511719 C 222.515625 124.355469 221.125 124.484375 220.171875 123.753906 C 219.3125 123.089844 218.703125 122.054688 218.214844 121.101562 C 216.730469 117.878906 216.34375 114.367188 216.730469 110.859375 Z M 216.730469 110.859375 " fill-opacity="1" fill-rule="nonzero"/><path fill="#ef7228" d="M 186.019531 115.835938 C 186.453125 119.421875 186.261719 123.097656 186.117188 126.703125 C 185.308594 137.175781 182.507812 147.527344 178.03125 157.035156 C 175.832031 157.113281 173.625 157.046875 171.433594 157.214844 C 167.65625 157.480469 163.871094 158.332031 160.253906 159.433594 C 151.863281 162.109375 143.914062 166.410156 137.109375 172 C 132.378906 175.828125 128.359375 180.269531 125.90625 185.890625 C 125.003906 187.910156 124.667969 189.976562 124.191406 192.113281 C 120.898438 187.0625 119.316406 180.816406 119.300781 174.820312 C 119.132812 166.894531 121.136719 158.878906 124.613281 151.773438 C 127.210938 146.128906 130.765625 140.898438 134.90625 136.269531 C 143.074219 126.914062 153.921875 119.394531 165.976562 116.050781 C 172.460938 114.167969 179.511719 113.835938 186.019531 115.835938 Z M 186.019531 115.835938 " fill-opacity="1" fill-rule="nonzero"/><path fill="#a00513" d="M 203.605469 139.511719 C 205.113281 141.246094 206.257812 143.207031 207.832031 144.886719 C 210.015625 147.246094 212.683594 149.234375 215.644531 150.507812 C 219.203125 152.046875 223.273438 152.378906 227.046875 151.542969 C 230.472656 150.710938 233.742188 149.003906 236.558594 146.902344 C 238.214844 145.683594 239.507812 144.105469 241.234375 142.96875 C 240.953125 143.863281 240.644531 144.746094 240.203125 145.574219 C 238.464844 148.824219 236.386719 151.769531 233.480469 154.082031 C 230.039062 156.898438 225.890625 158.84375 221.355469 158.722656 C 216.9375 158.699219 212.8125 156.660156 209.671875 153.648438 C 205.910156 149.859375 203.992188 144.773438 203.605469 139.511719 Z M 203.605469 139.511719 " fill-opacity="1" fill-rule="nonzero"/><path fill="#a00513" d="M 226.707031 144.25 C 224.996094 144.445312 223.375 144.449219 221.664062 144.246094 C 223.417969 143.929688 224.953125 143.9375 226.707031 144.25 Z M 226.707031 144.25 " fill-opacity="1" fill-rule="nonzero"/><path fill="#ffe226" d="M 181.957031 168.398438 C 181.851562 169.683594 181.644531 170.910156 181.023438 172.058594 C 176.246094 169.589844 170.953125 168.496094 165.589844 168.664062 C 164.324219 168.714844 163.070312 168.667969 161.808594 168.582031 C 168.050781 166.359375 175.769531 165.695312 181.957031 168.398438 Z M 181.957031 168.398438 " fill-opacity="1" fill-rule="nonzero"/><path fill="#ef7228" d="M 161.808594 168.582031 C 163.070312 168.667969 164.324219 168.714844 165.589844 168.664062 C 170.953125 168.496094 176.246094 169.589844 181.023438 172.058594 C 180.460938 172.78125 179.828125 173.414062 179.171875 174.050781 C 173 172.015625 166.609375 171 160.105469 171.636719 C 158.039062 171.835938 156.003906 172.230469 153.9375 172.441406 C 156.261719 170.691406 159.074219 169.527344 161.808594 168.582031 Z M 161.808594 168.582031 " fill-opacity="1" fill-rule="nonzero"/><path fill="#fd182d" d="M 164.042969 179.628906 C 163.660156 182.273438 163.207031 184.859375 163.34375 187.546875 C 163.644531 196.660156 167.355469 205.125 172.6875 212.410156 C 174.011719 214.222656 175.582031 215.8125 176.996094 217.550781 L 176.394531 217.582031 C 170.914062 213.332031 166.523438 207.730469 164.019531 201.25 C 162.671875 197.867188 161.417969 194.566406 160.902344 190.9375 C 160.402344 187.339844 160.351562 183.457031 161 179.875 C 162.011719 179.726562 163.019531 179.621094 164.042969 179.628906 Z M 164.042969 179.628906 " fill-opacity="1" fill-rule="nonzero"/><path fill="#a00513" d="M 164.042969 179.628906 C 167.882812 179.714844 171.609375 180.050781 175.25 181.355469 C 176.648438 181.871094 178.058594 182.195312 179.558594 182.179688 C 179.242188 184.8125 178.882812 187.347656 179.207031 190.007812 C 179.769531 195.007812 181.824219 199.945312 184.457031 204.210938 C 185.855469 206.410156 187.230469 208.488281 189.261719 210.167969 C 189.054688 207.488281 188.125 205.015625 188.238281 202.292969 C 188.910156 206.796875 190.027344 211.25 191.507812 215.554688 C 192.453125 218.324219 193.957031 220.746094 195.445312 223.238281 C 191.027344 223.777344 186.421875 223.003906 182.410156 221.078125 C 180.28125 220.027344 178.242188 219.097656 176.394531 217.582031 L 176.996094 217.550781 C 175.578125 215.8125 174.011719 214.222656 172.6875 212.410156 C 167.355469 205.125 163.644531 196.660156 163.34375 187.546875 C 163.207031 184.859375 163.660156 182.273438 164.042969 179.628906 Z M 164.042969 179.628906 " fill-opacity="1" fill-rule="nonzero"/><path fill="#a00513" d="M 192.9375 180.410156 C 193.1875 187.390625 195.566406 194.457031 198.578125 200.71875 C 200.375 204.492188 202.460938 208.253906 205.128906 211.484375 C 206.835938 213.488281 208.695312 215.289062 211.035156 216.546875 C 210.960938 216.152344 210.882812 215.761719 210.792969 215.367188 C 211.453125 216.1875 212.082031 217.015625 212.628906 217.914062 C 209.46875 218.144531 206.214844 217.199219 203.539062 215.546875 C 200.09375 213.367188 197.972656 209.875 196.105469 206.363281 C 194.636719 203.335938 193.667969 200.035156 192.972656 196.75 C 191.964844 192 192.117188 187.363281 192.527344 182.5625 C 192.601562 181.832031 192.761719 181.117188 192.9375 180.410156 Z M 192.9375 180.410156 " fill-opacity="1" fill-rule="nonzero"/><path fill="#fd182d" d="M 154.164062 191.363281 C 154.25 195.152344 154.640625 198.820312 155.789062 202.449219 C 156.285156 203.894531 156.871094 205.296875 157.21875 206.792969 C 155.445312 206.550781 153.714844 206.121094 151.96875 205.726562 C 151.605469 203.785156 151.652344 201.847656 151.722656 199.886719 C 151.800781 196.832031 152.304688 193.871094 154.164062 191.363281 Z M 154.164062 191.363281 " fill-opacity="1" fill-rule="nonzero"/><path fill="#a00513" d="M 221.011719 195.371094 C 222.832031 196.96875 224.40625 198.753906 226.433594 200.125 C 231.347656 203.648438 237.847656 205.894531 243.933594 205.089844 C 244.015625 204.628906 244.09375 204.171875 244.179688 203.710938 C 244.925781 205.484375 245.304688 207.808594 244.039062 209.4375 C 242.785156 211.082031 240.625 211.363281 238.691406 211.21875 C 234.8125 210.863281 230.957031 209.046875 227.730469 206.933594 C 227.074219 206.527344 226.359375 206.257812 225.621094 206.046875 C 224.996094 203.960938 223.625 202.597656 222.683594 200.679688 C 221.816406 199.015625 221.292969 197.21875 221.011719 195.371094 Z M 221.011719 195.371094 " fill-opacity="1" fill-rule="nonzero"/><path fill="#a00513" d="M 203.300781 196.691406 C 204.761719 198.464844 205.804688 200.484375 207.355469 202.199219 C 209.992188 205.304688 213.53125 207.679688 217.273438 209.25 C 220.34375 210.496094 223.507812 210.714844 226.789062 210.601562 C 226.894531 210.335938 226.996094 210.070312 227.097656 209.804688 C 227.945312 211.28125 229.0625 212.5 230.203125 213.746094 C 228.125 215.515625 225.53125 216.5 222.78125 216.414062 C 219.617188 216.488281 216.726562 215.4375 213.992188 213.933594 C 212.253906 212.953125 210.894531 211.679688 209.210938 210.480469 C 209.234375 211.070312 209.253906 211.660156 209.308594 212.253906 C 208.917969 210.789062 208.695312 209.382812 207.820312 208.105469 C 205.53125 204.65625 203.585938 200.886719 203.300781 196.691406 Z M 203.300781 196.691406 " fill-opacity="1" fill-rule="nonzero"/><path fill="#0a41c9" d="M 245.445312 214.726562 C 243.648438 215.691406 241.628906 215.6875 239.851562 216.683594 C 243.105469 218.550781 246.597656 219.867188 250.378906 220.089844 C 253.785156 220.238281 257.429688 219.9375 260.691406 218.785156 C 256.164062 217.460938 251.773438 215.347656 247.828125 213.007812 C 247.144531 213.679688 246.367188 214.261719 245.445312 214.726562 Z M 245.445312 214.726562 " fill-opacity="1" fill-rule="nonzero"/><path fill="#1a7beb" d="M 269.46875 212.003906 C 265.894531 210.25 262.15625 209.488281 258.261719 208.832031 C 255.863281 208.386719 253.234375 208.878906 250.777344 208.953125 C 249.90625 210.441406 249.007812 211.851562 247.828125 213.007812 C 251.773438 215.347656 256.164062 217.460938 260.691406 218.785156 C 261.160156 218.621094 261.621094 218.4375 262.074219 218.238281 C 264.9375 216.820312 267.824219 214.8125 269.46875 212.003906 Z M 269.46875 212.003906 " fill-opacity="1" fill-rule="nonzero"/><path fill="#0adb42" d="M 143.84375 213.425781 C 147.40625 212.773438 150.671875 213.527344 154.121094 214.371094 C 156.226562 214.890625 158.089844 215.890625 159.925781 217.015625 C 162.074219 218.351562 164.25 219.363281 166.21875 220.976562 C 168.308594 222.699219 170.332031 224.414062 172.148438 226.425781 C 170.96875 226.589844 169.628906 227.054688 168.4375 226.875 C 167.1875 225.894531 166.207031 224.636719 164.832031 223.78125 C 161.554688 221.644531 157.644531 220.269531 153.730469 220.035156 C 155.980469 221.589844 158.253906 223.097656 160.421875 224.769531 C 158.75 224.867188 156.984375 225.320312 155.316406 225.113281 C 152.820312 224.503906 150.375 223.359375 148.199219 222.011719 C 144.953125 220.199219 142.042969 217.636719 139.941406 214.570312 C 141.210938 214.074219 142.484375 213.613281 143.84375 213.425781 Z M 143.84375 213.425781 " fill-opacity="1" fill-rule="nonzero"/><path fill="#0a41c9" d="M 229.613281 221.652344 C 227.058594 222.53125 224.210938 222.839844 221.585938 222.226562 C 219.839844 221.917969 218.542969 221.027344 216.714844 221.28125 C 218.078125 223.320312 219.941406 224.734375 221.898438 226.175781 C 225.945312 228.9375 230.496094 231.074219 235.519531 230.863281 C 238.605469 231.085938 241.710938 230.152344 244.320312 228.488281 C 238.621094 228.15625 233.113281 226.636719 229.613281 221.652344 Z M 229.613281 221.652344 " fill-opacity="1" fill-rule="nonzero"/><path fill="#1a7beb" d="M 236.515625 217.304688 C 234.609375 218.746094 232.988281 220.28125 230.730469 221.226562 C 230.367188 221.378906 229.992188 221.523438 229.613281 221.652344 C 233.113281 226.636719 238.621094 228.15625 244.320312 228.488281 C 245.476562 227.75 246.539062 226.871094 247.457031 225.882812 C 244.59375 224.585938 241.984375 222.914062 239.617188 220.859375 C 238.425781 219.789062 237.601562 218.523438 236.515625 217.304688 Z M 236.515625 217.304688 " fill-opacity="1" fill-rule="nonzero"/><path fill="#1a7beb" d="M 219.78125 232.707031 C 221.210938 233.074219 222.675781 233.296875 224.148438 233.363281 C 222.355469 231.867188 220.699219 230.277344 219.386719 228.332031 C 218.035156 226.535156 217.167969 224.503906 216.046875 222.574219 C 214.609375 223.28125 213.34375 224.023438 211.78125 224.273438 C 214 227.503906 216.632812 230.453125 219.78125 232.707031 Z M 219.78125 232.707031 " fill-opacity="1" fill-rule="nonzero"/><path fill="#0a41c9" d="M 211.78125 224.273438 C 211.5625 224.304688 211.339844 224.332031 211.113281 224.34375 C 209.386719 224.410156 207.574219 223.90625 205.882812 223.585938 C 208.363281 226.308594 211.0625 228.722656 214.289062 230.539062 C 216.011719 231.484375 217.867188 232.222656 219.78125 232.707031 C 216.632812 230.453125 214 227.503906 211.78125 224.273438 Z M 211.78125 224.273438 " fill-opacity="1" fill-rule="nonzero"/><path fill="#ffe226" d="M 161.777344 230.703125 C 159.546875 232.914062 157.597656 235.277344 156.460938 238.242188 C 154.925781 241.945312 154.929688 246.066406 156.339844 249.8125 C 154.765625 248.460938 154.292969 246.695312 153.558594 244.84375 C 152.6875 244.554688 151.816406 244.265625 150.929688 244.019531 C 150.71875 241.066406 151.636719 238.203125 153.230469 235.734375 C 154.414062 233.921875 156.039062 232.234375 158.089844 231.425781 C 159.289062 230.929688 160.503906 230.828125 161.777344 230.703125 Z M 161.777344 230.703125 " fill-opacity="1" fill-rule="nonzero"/><path fill="#ffe226" d="M 177.859375 232.207031 C 177.238281 233.179688 176.605469 234.144531 175.976562 235.117188 C 175.65625 235.554688 175.464844 236 174.882812 236.132812 C 172.976562 236.703125 171.195312 237.027344 169.546875 238.238281 C 167.910156 239.394531 166.902344 241.304688 166.90625 243.308594 C 166.871094 244.84375 167.644531 246.28125 168.425781 247.554688 C 168.25 247.808594 168.074219 248.0625 167.898438 248.3125 C 166.628906 247.273438 165.65625 246.015625 164.617188 244.765625 C 163.789062 244.8125 162.972656 244.917969 162.148438 245.023438 C 161.945312 242.539062 162.617188 240.042969 163.945312 237.945312 C 166.921875 233.460938 172.53125 230.957031 177.859375 232.207031 Z M 177.859375 232.207031 " fill-opacity="1" fill-rule="nonzero"/><path fill="#ffe226" d="M 201.882812 231.9375 C 203.28125 232.195312 204.453125 233.703125 205.554688 234.554688 C 203.492188 236.410156 201.585938 238.238281 200.457031 240.828125 C 198.765625 244.378906 198.664062 248.363281 199.835938 252.085938 L 199.75 252.8125 C 198.261719 251.125 198.195312 249.105469 197.308594 247.175781 C 195.160156 246.625 192.878906 246.566406 190.691406 246.164062 C 190.515625 241.382812 192.40625 236.734375 196.171875 233.71875 C 197.691406 232.574219 199.996094 231.898438 201.882812 231.9375 Z M 201.882812 231.9375 " fill-opacity="1" fill-rule="nonzero"/><path fill="#ffe226" d="M 188.589844 232.980469 C 187.582031 234.816406 186.449219 236.523438 185.761719 238.523438 C 184.417969 242.011719 184.03125 245.757812 184.757812 249.433594 C 184.042969 247.835938 183.898438 246.136719 183.398438 244.492188 C 182.523438 243.871094 181.398438 243.566406 180.433594 243.101562 C 180.355469 242.816406 180.28125 242.527344 180.214844 242.234375 C 181.179688 238.152344 184.296875 233.917969 188.589844 232.980469 Z M 188.589844 232.980469 " fill-opacity="1" fill-rule="nonzero"/><path fill="#ffe226" d="M 146.230469 233.347656 C 145.46875 235.261719 144.675781 237.109375 144.382812 239.167969 C 143.902344 241.78125 144.097656 244.425781 144.722656 246.992188 C 144.34375 246.742188 143.964844 246.625 143.828125 246.148438 C 143.304688 244.753906 143.179688 243.15625 142.976562 241.6875 C 142.269531 241.738281 141.566406 241.792969 140.863281 241.84375 C 141.09375 238.988281 142.605469 236.808594 144.417969 234.699219 C 144.949219 234.175781 145.605469 233.757812 146.230469 233.347656 Z M 146.230469 233.347656 " fill-opacity="1" fill-rule="nonzero"/><path fill="#ffe226" d="M 130.347656 237.710938 C 131.960938 238.140625 133.59375 238.386719 135.257812 238.523438 C 135.15625 239.15625 135.050781 239.789062 134.953125 240.421875 C 134.851562 241.019531 134.730469 241.617188 134.609375 242.207031 C 132.40625 242.199219 130.25 241.847656 128.105469 241.359375 C 127.203125 241.160156 126.4375 240.714844 125.640625 240.269531 C 126.167969 239.257812 126.765625 238.121094 127.820312 237.5625 C 128.546875 237.214844 129.59375 237.554688 130.347656 237.710938 Z M 130.347656 237.710938 " fill-opacity="1" fill-rule="nonzero"/><path fill="#ffe226" d="M 209.679688 237.4375 C 211.351562 238.171875 212.972656 239.03125 214.660156 239.746094 C 212.386719 243.902344 212.074219 248.664062 213.300781 253.195312 C 212.679688 252.417969 212.042969 251.773438 211.726562 250.808594 C 211.28125 249.421875 211.070312 247.953125 210.746094 246.53125 C 208.949219 246.945312 207.152344 247.316406 205.328125 247.589844 C 205.109375 243.894531 206.078125 239.292969 209.679688 237.4375 Z M 209.679688 237.4375 " fill-opacity="1" fill-rule="nonzero"/><path fill="#ffe226" d="M 257.132812 239.679688 C 258.566406 239.859375 260.4375 240.363281 261.046875 241.835938 C 261.714844 243.421875 261.691406 245.347656 261.46875 247.027344 C 261.125 248.910156 260.40625 251.210938 258.878906 252.472656 C 257.945312 253.316406 256.429688 253.105469 255.261719 253.144531 C 254.648438 251.566406 254.367188 249.960938 254.617188 248.269531 C 254.851562 246.21875 255.648438 244.496094 256.394531 242.605469 C 252.476562 242.183594 248.964844 243.207031 245.097656 243.445312 C 241.210938 243.6875 237.429688 244.4375 233.558594 244.90625 C 228.796875 245.648438 223.097656 246.546875 218.40625 245.128906 C 218.640625 244.457031 218.914062 243.804688 219.1875 243.148438 C 222.800781 243.492188 226.214844 242.867188 229.789062 242.558594 C 233.15625 242.25 236.453125 241.574219 239.808594 241.15625 C 245.71875 240.492188 251.144531 239.265625 257.132812 239.679688 Z M 257.132812 239.679688 " fill-opacity="1" fill-rule="nonzero"/><path fill="#ef7228" d="M 125.640625 240.269531 C 126.4375 240.714844 127.203125 241.160156 128.105469 241.359375 C 130.25 241.847656 132.410156 242.199219 134.609375 242.207031 C 134.730469 241.617188 134.851562 241.019531 134.953125 240.421875 C 134.683594 242.488281 134.976562 244.480469 135.308594 246.511719 C 132.753906 247.230469 130.21875 247.171875 127.582031 247.042969 C 126.628906 246.976562 125.902344 246.558594 125.582031 245.628906 C 125.007812 244.09375 125.03125 241.800781 125.640625 240.269531 Z M 125.640625 240.269531 " fill-opacity="1" fill-rule="nonzero"/><path fill="#ef7228" d="M 173.472656 240.710938 C 173.328125 243.121094 173.253906 245.484375 173.449219 247.890625 C 172.515625 246.675781 171.414062 245.703125 171.554688 244.03125 C 171.511719 242.5 172.441406 241.667969 173.472656 240.710938 Z M 173.472656 240.710938 " fill-opacity="1" fill-rule="nonzero"/><path fill="#ef7228" d="M 142.976562 241.6875 C 143.179688 243.15625 143.304688 244.753906 143.828125 246.148438 C 143.964844 246.625 144.34375 246.742188 144.722656 246.992188 C 144.886719 247.585938 145.058594 248.179688 145.207031 248.777344 C 144.132812 248.308594 143.132812 247.792969 142.390625 246.859375 C 141.171875 245.457031 140.753906 243.671875 140.863281 241.84375 C 141.566406 241.792969 142.269531 241.738281 142.976562 241.6875 Z M 142.976562 241.6875 " fill-opacity="1" fill-rule="nonzero"/><path fill="#ef7228" d="M 180.214844 242.234375 C 180.28125 242.527344 180.355469 242.816406 180.433594 243.101562 C 181.398438 243.566406 182.523438 243.871094 183.398438 244.492188 C 183.898438 246.136719 184.042969 247.835938 184.757812 249.433594 C 185.074219 250.59375 185.351562 251.761719 185.5625 252.945312 C 183.828125 252.570312 182.4375 251.789062 181.40625 250.320312 C 179.683594 247.898438 179.640625 245.050781 180.214844 242.234375 Z M 180.214844 242.234375 " fill-opacity="1" fill-rule="nonzero"/><path fill="#ef7228" d="M 256.394531 242.605469 C 255.648438 244.496094 254.851562 246.21875 254.617188 248.269531 C 254.367188 249.960938 254.648438 251.566406 255.261719 253.144531 C 253.121094 253.074219 250.957031 253.1875 248.832031 252.964844 C 246.582031 252.6875 244.347656 252.238281 242.09375 251.988281 C 238.074219 251.558594 234.058594 251.296875 230.019531 251.207031 C 226.703125 250.898438 223.378906 250.855469 220.066406 251.253906 C 219.589844 251.242188 218.8125 251.472656 218.425781 251.15625 C 217.78125 249.273438 217.960938 247.042969 218.40625 245.128906 C 223.097656 246.546875 228.800781 245.648438 233.558594 244.90625 C 237.429688 244.433594 241.210938 243.6875 245.097656 243.441406 C 248.964844 243.207031 252.476562 242.183594 256.394531 242.605469 Z M 256.394531 242.605469 " fill-opacity="1" fill-rule="nonzero"/><path fill="#ef7228" d="M 150.929688 244.019531 C 151.816406 244.265625 152.6875 244.554688 153.5625 244.84375 C 154.292969 246.695312 154.765625 248.460938 156.339844 249.8125 C 156.636719 250.378906 156.910156 250.953125 157.179688 251.535156 C 153.617188 250.703125 151.308594 247.558594 150.929688 244.019531 Z M 150.929688 244.019531 " fill-opacity="1" fill-rule="nonzero"/><path fill="#ef7228" d="M 164.617188 244.765625 C 165.65625 246.015625 166.628906 247.273438 167.898438 248.3125 C 168.074219 248.0625 168.25 247.808594 168.425781 247.558594 C 169.558594 249.363281 171.214844 250.402344 172.898438 251.613281 C 170.488281 251.761719 168.285156 252 166.09375 250.761719 C 163.84375 249.578125 162.519531 247.515625 162.148438 245.027344 C 162.972656 244.917969 163.789062 244.8125 164.617188 244.765625 Z M 164.617188 244.765625 " fill-opacity="1" fill-rule="nonzero"/><path fill="#ef7228" d="M 190.691406 246.164062 C 192.878906 246.566406 195.160156 246.625 197.308594 247.175781 C 198.199219 249.105469 198.261719 251.125 199.75 252.8125 L 199.835938 252.085938 C 200.183594 253.046875 200.539062 254.003906 200.859375 254.96875 C 200.039062 255.398438 199.289062 255.917969 198.328125 255.933594 C 196.445312 256.027344 194.746094 255.152344 193.480469 253.808594 C 191.550781 251.738281 190.726562 248.953125 190.691406 246.164062 Z M 190.691406 246.164062 " fill-opacity="1" fill-rule="nonzero"/><path fill="#ef7228" d="M 210.742188 246.535156 C 211.070312 247.953125 211.28125 249.421875 211.722656 250.808594 C 212.042969 251.777344 212.679688 252.417969 213.300781 253.195312 C 213.496094 253.75 213.683594 254.304688 213.867188 254.859375 C 212.363281 255.058594 210.929688 255.089844 209.539062 254.390625 C 206.980469 253.105469 205.542969 250.378906 205.328125 247.59375 C 207.152344 247.316406 208.949219 246.945312 210.742188 246.535156 Z M 210.742188 246.535156 " fill-opacity="1" fill-rule="nonzero"/><path fill="#0adb42" d="M 149.28125 255.441406 C 150.496094 255.121094 151.839844 256.058594 152.9375 256.511719 C 148.601562 259.570312 144.746094 263.195312 141.664062 267.523438 C 144.457031 265.355469 147.625 264.128906 150.761719 262.566406 C 153.914062 261.15625 157.304688 259.671875 160.734375 259.148438 C 159 266.304688 154.113281 272.539062 147.625 276.03125 C 144.421875 277.734375 140.824219 278.128906 137.25 277.707031 C 135.542969 277.46875 134.027344 276.753906 132.574219 275.859375 C 133.007812 272.960938 133.996094 270.21875 135.253906 267.585938 C 137.078125 263.996094 139.945312 260.917969 143.15625 258.515625 C 145.007812 257.125 146.976562 255.914062 149.28125 255.441406 Z M 149.28125 255.441406 " fill-opacity="1" fill-rule="nonzero"/><path fill="#0adb42" d="M 173.570312 257.492188 C 174.550781 257.492188 175.457031 258.492188 176.074219 259.164062 C 178.121094 261.578125 180.074219 263.90625 181.660156 266.664062 C 182.425781 268.027344 182.832031 269.53125 183.507812 270.964844 C 183.710938 268.355469 183.292969 265.667969 182.746094 263.121094 C 182.351562 261.234375 181.488281 259.609375 180.675781 257.882812 C 181.828125 258.304688 182.976562 258.671875 184.207031 258.796875 C 185.027344 258.964844 186.078125 258.882812 186.652344 259.5625 C 188.6875 261.738281 189.0625 264.816406 189.199219 267.65625 C 189.132812 272.722656 188.226562 277.660156 185.601562 282.0625 C 181.769531 280.144531 178.332031 277.414062 175.472656 274.234375 C 173.34375 271.867188 171.949219 269.082031 170.898438 266.097656 C 170.027344 263.511719 169.449219 260.859375 169.535156 258.113281 C 170.859375 257.898438 172.21875 257.515625 173.570312 257.492188 Z M 173.570312 257.492188 " fill-opacity="1" fill-rule="nonzero"/><path fill="#0adb42" d="M 229.585938 259.21875 C 231.136719 259.375 232.671875 259.769531 234.160156 260.207031 C 236.535156 260.867188 238.78125 262.445312 240.855469 263.753906 C 242.722656 264.917969 244.28125 266.453125 246.09375 267.6875 C 245.128906 264.792969 243.179688 262.601562 241.40625 260.199219 C 242.617188 260.324219 244.070312 260.304688 245.164062 260.867188 C 246.261719 261.765625 247.023438 263.140625 247.664062 264.382812 C 248.953125 267.210938 249.636719 270.367188 249.496094 273.480469 C 244.742188 272.820312 240.066406 270.933594 236.3125 267.9375 C 233.511719 265.640625 230.867188 262.648438 229.585938 259.21875 Z M 229.585938 259.21875 " fill-opacity="1" fill-rule="nonzero"/><path fill="#0adb42" d="M 216.589844 260.632812 C 216.898438 264.277344 217.011719 267.929688 217.347656 271.574219 C 217.75 270.167969 218.125 268.757812 218.582031 267.367188 C 219.386719 264.976562 219.964844 262.613281 221.289062 260.433594 C 221.960938 262.058594 222.589844 263.683594 223.480469 265.207031 C 223.882812 265.96875 224.449219 266.800781 224.449219 267.683594 C 224.523438 269.847656 223.921875 272.136719 223.296875 274.203125 C 222.351562 277.277344 221.121094 280.191406 218.933594 282.605469 C 216.960938 280.972656 215.273438 279.0625 213.742188 277.019531 C 212.171875 274.917969 211.25 272.390625 210.6875 269.847656 C 210.144531 267.167969 209.714844 264.503906 209.9375 261.757812 C 212.363281 261.757812 214.320312 261.449219 216.589844 260.632812 Z M 216.589844 260.632812 " fill-opacity="1" fill-rule="nonzero"/><path fill="#fd182d" d="M 230.332031 273.402344 C 231.949219 274.25 233.359375 275.457031 234.964844 276.335938 C 239.148438 278.800781 243.734375 280.164062 248.476562 281.078125 C 248.453125 281.886719 248.453125 282.726562 248.308594 283.523438 C 247.988281 284.601562 247.550781 285.621094 247.109375 286.652344 C 244.464844 286.042969 241.785156 285.523438 239.152344 284.863281 C 236.308594 284.140625 234.015625 282.523438 231.347656 281.429688 C 232.066406 283.195312 233.050781 284.804688 234.070312 286.410156 C 235.339844 288.398438 236.308594 290.34375 237.957031 292.0625 C 238.914062 293.0625 239.835938 294.085938 240.628906 295.230469 C 238.652344 296.101562 236.804688 297.0625 234.703125 297.632812 C 232.566406 298.265625 230.445312 298.449219 228.242188 298.699219 C 226.796875 294.742188 225.121094 290.554688 224.707031 286.339844 C 226.445312 283.976562 227.886719 281.414062 228.808594 278.625 C 229.433594 276.914062 229.746094 275.117188 230.332031 273.402344 Z M 230.332031 273.402344 " fill-opacity="1" fill-rule="nonzero"/><path fill="#1a7beb" d="M 203.601562 275.351562 C 204.996094 277.605469 205.929688 280.09375 207.4375 282.300781 C 207.371094 282.957031 207.257812 283.578125 207.503906 284.214844 C 209.242188 288.507812 212.347656 291.507812 215.90625 294.335938 C 219.121094 297.769531 223.644531 299.753906 228.390625 299.117188 C 230.722656 298.792969 232.949219 298.636719 235.226562 297.910156 C 237.355469 297.261719 239.285156 296.304688 241.09375 295.007812 C 242.429688 294.097656 243.558594 292.800781 244.523438 291.515625 C 246.28125 289.039062 247.832031 286.582031 248.308594 283.523438 C 248.453125 282.726562 248.453125 281.882812 248.476562 281.078125 C 250.871094 281.507812 252.984375 281.382812 255.304688 280.695312 C 259.3125 285.238281 262.777344 289.929688 264.25 295.910156 C 264.945312 298.46875 265.171875 301.789062 263.480469 304.019531 C 261.855469 306.253906 259.503906 307.214844 257.023438 308.21875 C 256.128906 308.523438 254.925781 308.949219 254 308.632812 C 253.214844 308.179688 252.667969 307.238281 252.128906 306.53125 C 250.871094 304.707031 249.328125 303.273438 247.882812 301.585938 C 246.910156 300.445312 245.882812 299.398438 244.730469 298.429688 C 245.859375 300.644531 247.0625 302.792969 247.863281 305.148438 C 249 308.050781 249.367188 311.167969 249.191406 314.265625 C 249.144531 315.183594 248.625 315.859375 247.867188 316.332031 C 246.203125 317.363281 244.160156 317.648438 242.238281 317.515625 C 239.597656 317.3125 237.054688 317.15625 234.53125 316.261719 C 232.628906 315.570312 230.722656 314.777344 229.003906 313.699219 C 227.332031 312.640625 226.261719 311.117188 224.933594 309.652344 C 222.992188 307.46875 221.53125 305.039062 219.980469 302.578125 C 218.773438 300.667969 218.011719 298.578125 216.691406 296.753906 C 216.714844 300.507812 217.167969 304.273438 217.945312 307.945312 C 216.796875 308.34375 215.519531 309.011719 214.285156 308.730469 C 211.863281 308.199219 209.734375 306.714844 208.035156 304.957031 C 205.480469 302.484375 203.9375 298.929688 202.976562 295.566406 C 201.800781 291.414062 202.027344 287.453125 202.097656 283.1875 C 202.285156 280.574219 202.570312 277.78125 203.601562 275.351562 Z M 203.601562 275.351562 " fill-opacity="1" fill-rule="nonzero"/><path fill="#a00513" d="M 231.347656 281.429688 C 234.015625 282.523438 236.308594 284.140625 239.152344 284.863281 C 241.789062 285.523438 244.464844 286.042969 247.109375 286.652344 C 247.550781 285.621094 247.988281 284.601562 248.308594 283.523438 C 247.832031 286.582031 246.28125 289.039062 244.523438 291.515625 C 243.5625 292.800781 242.429688 294.101562 241.09375 295.007812 L 240.628906 295.230469 C 239.835938 294.085938 238.914062 293.0625 237.957031 292.0625 C 236.308594 290.34375 235.339844 288.398438 234.070312 286.410156 C 233.050781 284.804688 232.066406 283.195312 231.347656 281.429688 Z M 231.347656 281.429688 " fill-opacity="1" fill-rule="nonzero"/><path fill="#fd182d" d="M 207.4375 282.300781 C 209.796875 284.894531 212.261719 288.257812 215.363281 289.988281 C 215.726562 291.4375 215.914062 292.839844 215.90625 294.335938 C 212.347656 291.507812 209.242188 288.507812 207.503906 284.214844 C 207.257812 283.578125 207.371094 282.957031 207.4375 282.300781 Z M 207.4375 282.300781 " fill-opacity="1" fill-rule="nonzero"/><path fill="#a00513" d="M 224.707031 286.339844 C 225.121094 290.554688 226.796875 294.742188 228.242188 298.699219 L 228.390625 299.117188 C 223.644531 299.753906 219.121094 297.769531 215.90625 294.335938 C 215.914062 292.839844 215.726562 291.4375 215.363281 289.992188 C 216.851562 290.546875 218.546875 291.011719 220.089844 290.386719 C 221.957031 289.632812 223.511719 287.90625 224.707031 286.339844 Z M 224.707031 286.339844 " fill-opacity="1" fill-rule="nonzero"/><path fill="#ef7228" d="M 240.628906 295.230469 L 241.09375 295.007812 C 239.289062 296.304688 237.355469 297.261719 235.226562 297.910156 C 232.949219 298.636719 230.722656 298.792969 228.390625 299.117188 L 228.242188 298.699219 C 230.445312 298.449219 232.570312 298.265625 234.703125 297.632812 C 236.804688 297.0625 238.65625 296.101562 240.628906 295.230469 Z M 240.628906 295.230469 " fill-opacity="1" fill-rule="nonzero"/></svg>