<svg xmlns="http://www.w3.org/2000/svg" xmlns:xlink="http://www.w3.org/1999/xlink" width="500" zoomAndPan="magnify" viewBox="0 0 375 374.999991" height="500" preserveAspectRatio="xMidYMid meet" version="1.0"><defs><clipPath id="id1"><path d="M 23.75 88.953125 L 351.5 88.953125 L 351.5 286.203125 L 23.75 286.203125 Z M 23.75 88.953125 " clip-rule="nonzero"/></clipPath></defs><rect x="-37.5" width="450" fill="#ffffff" y="-37.499999" height="449.999989" fill-opacity="1"/><rect x="-37.5" width="450" fill="#000000" y="-37.499999" height="449.999989" fill-opacity="1"/><rect x="-37.5" width="450" fill="#ffffff" y="-37.499999" height="449.999989" fill-opacity="1"/><rect x="-37.5" width="450" fill="#000000" y="-37.499999" height="449.999989" fill-opacity="1"/><g clip-path="url(#id1)"><path fill="#ffffff" d="M 125.566406 213.605469 L 103.398438 239.175781 L 23.953125 160.632812 L 72.949219 160.632812 Z M 304.472656 160.632812 L 241.695312 232.847656 L 193.785156 184.949219 L 126.578125 262.097656 L 150.964844 286.203125 L 194.511719 235.746094 L 242.78125 283.289062 L 351.277344 160.632812 Z M 190.609375 88.953125 L 124.117188 164.253906 L 148.152344 189.113281 L 191.980469 137.671875 L 240.695312 186.386719 L 263.285156 160.625 Z M 190.609375 88.953125 " fill-opacity="1" fill-rule="nonzero"/></g></svg>